{"glyphs":{"0":{"ha":1153,"x_min":0,"x_max":0,"o":"m 839 556 b 575 197 839 326 757 197 b 315 556 393 197 315 333 b 576 928 315 783 397 928 b 839 556 767 928 839 779 z m 1076 556 b 576 1139 1076 883 907 1139 b 76 556 250 1139 76 882 b 576 -14 76 229 242 -14 b 1076 556 913 -14 1076 229 z "},"1":{"ha":665,"x_min":0,"x_max":0,"o":"m 526 1125 l 331 1125 l 28 825 l 174 674 l 235 735 l 300 825 l 303 825 l 292 711 l 290 0 l 526 0 z "},"2":{"ha":1049,"x_min":0,"x_max":0,"o":"m 972 808 b 536 1139 972 979 835 1139 b 79 938 358 1139 215 1081 l 244 776 b 543 929 342 890 435 929 b 735 810 685 929 735 868 b 546 663 735 756 697 710 l 393 614 b 76 226 171 543 75 397 l 79 0 l 971 0 l 971 210 l 290 210 l 313 232 b 471 408 317 314 360 374 l 650 465 b 972 808 874 538 972 650 z "},"3":{"ha":1094,"x_min":0,"x_max":0,"o":"m 1018 333 b 826 589 1018 458 932 563 l 826 592 b 996 826 922 633 996 726 b 547 1139 996 994 854 1139 b 83 954 358 1139 211 1081 l 247 794 b 547 929 333 888 432 929 b 756 818 703 929 756 875 b 557 692 756 763 713 704 b 360 686 519 689 360 686 l 360 488 b 564 482 360 488 518 485 b 779 339 717 475 779 415 b 547 196 779 268 700 196 b 238 342 428 196 335 240 l 76 183 b 547 -14 217 44 356 -14 b 1018 333 876 -14 1018 160 z "},"4":{"ha":1104,"x_min":0,"x_max":0,"o":"m 679 451 b 375 451 638 451 375 451 l 375 454 l 461 529 l 606 693 l 668 781 l 671 781 l 667 683 l 667 475 l 679 451 z m 1049 451 l 892 451 l 903 475 l 903 1125 l 718 1125 l 56 399 l 56 242 l 679 242 l 667 219 l 667 0 l 903 0 l 903 218 l 892 242 l 1049 242 z "},"5":{"ha":1100,"x_min":0,"x_max":0,"o":"m 1024 382 b 551 782 1024 593 865 782 b 344 732 476 782 399 765 l 343 733 l 364 794 l 378 893 l 360 915 l 943 915 l 943 1125 l 175 1125 l 106 579 l 250 438 b 551 572 342 535 428 572 b 783 382 719 572 783 472 b 538 194 783 294 721 194 b 239 356 422 194 339 235 l 76 197 b 538 -15 207 42 338 -15 b 1024 382 872 -15 1024 176 z "},"6":{"ha":1142,"x_min":0,"x_max":0,"o":"m 828 383 b 581 194 826 299 742 194 b 342 381 410 194 340 300 b 589 572 343 464 425 572 b 828 383 761 572 829 464 z m 1065 382 b 592 782 1069 594 903 782 b 328 694 494 782 394 747 l 325 694 b 601 929 360 846 460 929 b 853 817 701 929 781 896 l 1015 979 b 601 1139 908 1088 779 1139 b 76 557 301 1139 83 917 b 578 -15 71 228 238 -15 b 1065 382 906 -15 1061 182 z "},"7":{"ha":1021,"x_min":0,"x_max":0,"o":"m 979 1125 l 42 1125 l 42 914 l 663 914 l 663 911 l 575 828 l 472 703 b 314 233 361 565 314 431 l 314 0 l 550 0 l 550 226 b 663 581 550 379 592 496 l 979 960 z "},"8":{"ha":1149,"x_min":0,"x_max":0,"o":"m 832 342 b 574 196 832 294 768 196 b 317 342 381 196 317 293 b 574 493 317 408 394 493 b 832 342 753 493 832 407 z m 792 810 b 574 688 792 772 742 688 b 357 810 406 688 357 772 b 575 928 357 850 393 928 b 792 810 757 928 792 851 z m 1072 339 b 871 600 1072 467 971 568 l 871 603 b 1033 818 951 638 1033 717 b 571 1139 1033 990 882 1139 b 117 818 258 1139 117 989 b 272 603 117 711 196 635 l 272 600 b 76 339 167 556 76 457 b 575 -14 76 163 249 -14 b 1072 339 900 -14 1072 163 z "},"9":{"ha":1142,"x_min":0,"x_max":0,"o":"m 800 743 b 553 553 799 661 717 553 b 314 740 381 553 313 660 b 561 929 315 825 400 929 b 800 743 732 929 801 824 z m 1065 567 b 563 1139 1071 896 904 1139 b 76 742 236 1139 81 942 b 550 343 72 529 238 343 b 815 429 647 343 747 379 l 818 429 b 542 194 783 278 683 194 b 286 308 442 194 360 226 l 122 146 b 543 -15 232 35 364 -15 b 1065 567 843 -15 1058 208 z "}," ":{"ha":431,"x_min":0,"x_max":0,"o":""},"!":{"ha":468,"x_min":0,"x_max":0,"o":"m 364 124 b 235 261 364 206 318 261 b 106 124 151 261 106 206 b 235 -14 106 42 150 -14 b 364 124 318 -14 364 42 z m 99 1125 l 143 321 l 324 321 l 369 1125 z "},"\"":{"ha":676,"x_min":0,"x_max":0,"o":"m 76 1167 l 111 717 l 257 717 l 292 1167 z m 385 1167 l 419 717 l 565 717 l 600 1167 z "},"#":{"ha":1110,"x_min":0,"x_max":0,"o":"m 690 653 l 643 472 l 649 451 l 403 451 l 419 472 l 467 653 l 460 675 l 707 675 z m 1068 856 l 926 856 l 943 876 l 1010 1125 l 815 1125 l 750 878 l 756 856 l 510 856 l 526 875 l 592 1125 l 399 1125 l 332 876 l 339 856 l 149 856 l 149 674 l 290 675 l 274 653 l 225 472 l 232 451 l 42 451 l 42 269 l 183 271 l 165 249 l 100 0 l 294 0 l 360 249 l 353 271 l 600 271 l 582 250 l 517 0 l 711 0 l 776 249 l 771 271 l 961 269 l 961 451 l 819 451 l 838 474 l 885 653 l 876 675 l 1068 674 z "},"$":{"ha":1113,"x_min":0,"x_max":0,"o":"m 782 279 b 658 189 782 247 753 206 l 669 213 l 669 360 l 658 386 b 782 279 754 357 782 313 z m 460 799 l 460 676 l 471 653 b 350 738 382 675 350 707 b 472 824 350 765 388 815 z m 1015 292 b 700 593 1015 432 914 542 b 657 604 696 594 671 600 l 669 622 l 669 785 l 656 813 b 838 686 724 792 776 754 l 1000 843 b 658 1028 890 957 790 1008 l 669 1051 l 669 1165 l 460 1165 l 460 1053 l 471 1032 b 111 729 239 1007 111 878 b 439 443 111 556 261 489 b 472 435 446 440 463 438 l 460 414 l 460 219 l 471 194 b 238 324 396 208 319 250 l 76 171 b 472 -18 197 54 329 0 l 460 -39 l 460 -153 l 669 -153 l 669 -40 l 657 -19 b 1015 292 900 3 1015 143 z "},"%":{"ha":1390,"x_min":0,"x_max":0,"o":"m 413 818 b 319 669 413 706 376 669 b 226 818 263 669 226 708 b 319 972 226 932 261 972 b 413 818 381 972 413 931 z m 1164 301 b 1071 154 1164 190 1128 154 b 978 301 1014 154 978 193 b 1071 457 978 417 1013 457 b 1164 301 1132 457 1164 414 z m 597 818 b 319 1140 597 988 510 1140 b 42 818 132 1140 42 988 b 319 501 42 647 129 501 b 597 818 511 501 597 647 z m 811 1139 l 400 -14 l 581 -14 l 990 1139 z m 1349 301 b 1071 624 1349 472 1261 624 b 793 301 883 624 793 472 b 1071 -14 793 131 881 -14 b 1349 301 1263 -14 1349 131 z "},"&":{"ha":1192,"x_min":0,"x_max":0,"o":"m 714 226 b 543 192 678 204 622 192 b 317 313 383 193 317 244 b 369 413 317 354 336 385 b 431 454 388 428 407 440 l 475 482 l 479 458 l 685 236 l 714 226 z m 638 842 b 514 713 638 788 603 753 l 510 736 b 475 775 499 749 485 764 b 447 840 456 800 447 819 b 543 926 447 888 488 926 b 638 842 597 926 638 888 z m 1025 181 l 1003 186 b 1075 382 1050 242 1075 322 l 1075 439 l 840 439 b 840 365 842 429 843 378 b 839 364 840 365 839 364 l 825 396 b 679 553 825 396 708 522 l 656 563 b 864 844 779 628 864 706 b 542 1136 864 1008 717 1136 b 221 843 367 1136 221 1007 b 257 715 221 792 238 753 b 279 681 264 704 272 693 b 318 639 289 667 306 650 b 332 633 319 638 332 633 b 76 313 182 554 76 454 b 543 -17 76 92 294 -17 b 861 64 675 -17 779 11 b 864 65 861 64 863 64 l 864 42 l 903 -1 l 1192 -1 z "},"’":{"ha":357,"x_min":0,"x_max":0,"o":"m 294 1013 b 179 1139 294 1086 256 1139 b 63 1013 103 1139 63 1086 b 161 890 63 947 96 894 l 131 865 l 63 704 l 163 661 l 276 933 b 294 1013 286 956 294 983 z "},"(":{"ha":492,"x_min":0,"x_max":0,"o":"m 478 -265 b 289 515 340 0 289 254 b 476 1260 289 764 346 997 l 268 1260 b 56 497 124 1001 56 760 b 269 -265 56 238 118 6 l 478 -265 z "},")":{"ha":492,"x_min":0,"x_max":0,"o":"m 436 497 b 222 1260 436 760 368 1001 l 14 1260 b 201 515 146 997 201 764 b 14 -265 201 254 151 0 l 222 -265 b 436 497 374 6 436 238 z "},"*":{"ha":810,"x_min":0,"x_max":0,"o":"m 542 885 l 700 997 l 610 1110 l 467 981 l 476 1174 l 333 1174 l 343 982 l 199 1110 l 110 997 l 267 886 l 76 853 l 108 713 l 293 764 l 200 596 l 329 533 l 404 711 l 478 533 l 608 596 l 515 765 l 701 713 l 733 851 z "},"+":{"ha":986,"x_min":0,"x_max":0,"o":"m 861 663 l 579 663 l 592 685 l 592 958 l 394 958 l 394 685 l 407 663 l 125 663 l 125 463 l 407 463 l 394 440 l 394 167 l 592 167 l 592 440 l 579 463 l 861 463 z "},",":{"ha":439,"x_min":0,"x_max":0,"o":"m 342 125 b 213 265 342 207 297 265 b 83 125 128 265 83 207 b 193 -11 83 53 121 -6 l 158 -39 l 83 -217 l 194 -264 l 321 38 b 342 125 332 63 342 94 z "},"-":{"ha":590,"x_min":0,"x_max":0,"o":"m 549 565 l 42 565 l 42 367 l 549 367 z "},".":{"ha":439,"x_min":0,"x_max":0,"o":"m 342 126 b 213 267 342 208 297 267 b 83 126 128 267 83 208 b 213 -14 83 44 128 -14 b 342 126 296 -14 342 44 z "},"/":{"ha":428,"x_min":0,"x_max":0,"o":"m 317 1194 l -97 -69 l 111 -69 l 525 1194 z "},":":{"ha":453,"x_min":0,"x_max":0,"o":"m 356 126 b 226 267 356 208 311 267 b 97 126 142 267 97 208 b 226 -14 97 44 142 -14 b 356 126 310 -14 356 44 z m 356 717 b 226 857 356 799 311 857 b 97 717 142 857 97 799 b 226 576 97 635 142 576 b 356 717 310 576 356 635 z "},";":{"ha":453,"x_min":0,"x_max":0,"o":"m 356 125 b 226 265 356 207 311 265 b 97 125 142 265 97 207 b 207 -11 97 53 135 -6 l 172 -39 l 97 -217 l 208 -264 l 335 38 b 356 125 346 63 356 94 z m 356 717 b 226 857 356 799 311 857 b 97 717 142 857 97 799 b 226 576 97 635 142 576 b 356 717 310 576 356 635 z "},"<":{"ha":779,"x_min":0,"x_max":0,"o":"m 454 469 l 390 526 l 346 563 l 429 629 l 654 863 l 510 1007 l 76 558 l 510 124 l 654 268 z "},"=":{"ha":979,"x_min":0,"x_max":0,"o":"m 854 493 l 125 493 l 125 296 l 854 296 z m 854 831 l 125 831 l 125 632 l 854 632 z "},">":{"ha":779,"x_min":0,"x_max":0,"o":"m 269 1007 l 125 863 l 325 656 l 388 599 l 432 561 l 350 496 l 125 268 l 268 124 l 703 558 z "},"?":{"ha":999,"x_min":0,"x_max":0,"o":"m 558 124 b 429 261 558 206 514 261 b 301 124 346 261 301 206 b 429 -14 301 42 346 -14 b 558 124 513 -14 558 42 z m 922 833 b 515 1139 922 1021 732 1139 b 76 949 339 1139 200 1078 l 247 794 b 515 935 324 892 404 935 b 682 833 597 935 682 892 b 582 738 682 788 649 763 b 551 726 578 735 554 731 b 315 393 396 667 315 583 l 315 321 l 543 321 l 543 378 b 636 533 543 471 561 503 b 681 551 639 539 675 546 b 922 833 810 604 922 682 z "},"@":{"ha":1375,"x_min":0,"x_max":0,"o":"m 772 611 b 603 365 772 492 711 365 b 497 518 525 365 497 425 b 675 744 497 618 571 744 b 772 611 750 744 772 689 z m 1278 615 b 704 1174 1278 931 1013 1174 b 97 581 382 1174 97 910 b 717 -36 97 222 365 -36 b 1071 90 832 -36 957 6 l 969 188 b 710 99 882 128 796 99 b 246 576 444 99 246 310 b 707 1040 246 829 454 1040 b 1128 613 938 1040 1128 843 b 957 360 1128 497 1078 360 b 894 417 919 360 894 385 b 908 513 894 446 899 474 l 1004 875 l 835 875 l 824 835 l 822 835 b 685 889 797 865 739 889 b 322 500 467 889 322 686 b 578 214 322 360 401 214 b 788 296 650 214 729 242 b 790 296 788 296 790 296 b 944 215 824 249 878 215 b 1278 615 1161 215 1278 439 z "},"A":{"ha":1332,"x_min":0,"x_max":0,"o":"m 490 465 l 514 488 l 631 732 l 665 833 l 668 835 l 703 732 l 819 488 l 843 465 z m 771 1125 l 563 1125 l 21 0 l 281 0 l 397 247 l 383 268 l 949 268 l 935 247 l 1053 0 l 1311 0 z "},"B":{"ha":1197,"x_min":0,"x_max":0,"o":"m 894 343 b 704 211 894 265 857 211 l 339 211 l 361 233 l 361 457 l 339 479 l 704 479 b 894 343 850 479 894 419 z m 846 797 b 679 676 846 733 815 676 l 339 676 l 361 697 l 361 892 l 339 914 l 679 914 b 846 797 806 914 846 868 z m 1135 340 b 981 585 1135 463 1072 553 b 981 586 981 585 981 586 b 1086 800 1051 633 1086 711 b 693 1125 1086 974 953 1125 l 125 1125 l 125 0 l 704 0 b 1135 340 974 0 1135 128 z "},"C":{"ha":1194,"x_min":0,"x_max":0,"o":"m 993 344 b 679 196 919 249 814 196 b 317 556 418 196 317 349 b 681 928 317 769 425 928 b 989 778 815 928 917 876 l 1151 940 b 681 1138 1033 1074 882 1138 b 76 556 292 1138 76 892 b 679 -15 76 219 283 -15 b 1153 186 872 -15 1033 57 z "},"D":{"ha":1247,"x_min":0,"x_max":0,"o":"m 931 563 b 594 211 931 360 886 211 l 339 211 l 361 233 l 361 892 l 339 914 l 589 914 b 931 563 883 914 931 763 z m 1171 563 b 603 1125 1171 818 1086 1125 l 125 1125 l 125 0 l 608 0 b 1171 563 1089 0 1171 307 z "},"E":{"ha":1153,"x_min":0,"x_max":0,"o":"m 1056 211 l 339 211 l 361 233 l 361 435 l 339 457 l 989 457 l 989 668 l 339 668 l 361 690 l 361 892 l 339 914 l 1056 914 l 1056 1125 l 125 1125 l 125 0 l 1056 0 z "},"F":{"ha":1069,"x_min":0,"x_max":0,"o":"m 1028 1125 l 125 1125 l 125 0 l 361 0 l 361 410 l 339 432 l 960 432 l 960 642 l 339 643 l 361 665 l 361 893 l 339 914 l 1028 914 z "},"G":{"ha":1333,"x_min":0,"x_max":0,"o":"m 1208 668 l 619 668 l 619 458 l 1010 458 l 986 436 b 676 196 971 297 850 196 b 317 553 428 196 317 325 b 685 929 317 792 433 929 b 988 801 804 929 908 893 l 1150 965 b 685 1139 1035 1085 865 1139 b 76 553 301 1139 76 904 b 676 -14 76 208 296 -14 b 1004 106 806 -14 938 35 l 1004 -1 l 1208 -1 z "},"H":{"ha":1278,"x_min":0,"x_max":0,"o":"m 1153 1125 l 917 1125 l 917 690 l 939 668 l 339 668 l 361 690 l 361 1125 l 125 1125 l 125 0 l 361 0 l 361 435 l 339 457 l 939 457 l 917 435 l 917 0 l 1153 0 z "},"I":{"ha":500,"x_min":0,"x_max":0,"o":"m 368 1125 l 132 1125 l 132 0 l 368 0 z "},"J":{"ha":956,"x_min":0,"x_max":0,"o":"m 838 1125 l 601 1125 l 601 418 b 385 197 601 246 493 197 b 160 332 308 197 219 247 l 0 172 b 383 -14 100 50 226 -14 b 838 425 619 -14 838 100 z "},"K":{"ha":1242,"x_min":0,"x_max":0,"o":"m 361 1125 l 125 1125 l 125 0 l 361 0 z m 1242 0 b 681 564 1242 0 721 531 b 679 567 679 565 679 567 l 1224 1124 l 894 1124 l 374 568 l 911 0 l 1242 0 z "},"L":{"ha":1011,"x_min":0,"x_max":0,"o":"m 990 211 l 340 211 l 361 232 l 361 1125 l 125 1125 l 125 0 l 990 0 z "},"M":{"ha":1458,"x_min":0,"x_max":0,"o":"m 1333 1125 l 1139 1125 l 778 501 l 731 383 l 728 383 l 679 501 l 319 1125 l 125 1125 l 125 -1 l 361 -1 l 361 644 l 364 644 l 414 526 l 726 -15 l 732 -15 l 1044 526 l 1094 646 l 1097 646 l 1097 -1 l 1333 -1 z "},"N":{"ha":1278,"x_min":0,"x_max":0,"o":"m 1153 1125 l 917 1125 l 917 378 l 914 378 l 836 506 l 324 1125 l 125 1125 l 125 0 l 361 0 l 361 751 l 364 751 l 447 619 l 954 0 l 1153 0 z "},"O":{"ha":1311,"x_min":0,"x_max":0,"o":"m 994 556 b 656 197 994 346 897 197 b 317 556 417 197 317 346 b 656 928 317 772 417 928 b 994 556 897 928 994 767 z m 1235 556 b 656 1139 1235 890 1038 1139 b 76 556 276 1139 76 890 b 656 -14 76 221 276 -14 b 1235 556 1029 -14 1235 221 z "},"P":{"ha":1176,"x_min":0,"x_max":0,"o":"m 874 760 b 690 604 874 669 822 604 l 339 604 l 361 626 l 361 893 l 339 914 l 690 914 b 874 760 822 914 874 854 z m 1114 760 b 690 1125 1114 974 957 1125 l 125 1125 l 125 0 l 361 0 l 361 372 l 339 393 l 690 393 b 1114 760 957 393 1114 554 z "},"Q":{"ha":1313,"x_min":0,"x_max":0,"o":"m 994 554 b 947 344 994 475 981 403 l 947 315 l 789 472 l 647 331 l 775 201 l 754 203 b 656 194 736 197 679 194 b 317 554 415 194 317 344 b 656 928 317 771 417 928 b 994 554 897 928 994 765 z m 1101 161 b 1235 554 1190 260 1235 399 b 656 1139 1235 890 1038 1139 b 76 554 276 1139 76 889 b 656 -14 76 219 276 -14 b 935 42 765 -14 858 7 l 1110 -133 l 1251 10 z "},"R":{"ha":1229,"x_min":0,"x_max":0,"o":"m 860 768 b 656 625 860 694 800 625 l 339 625 l 361 647 l 361 893 l 339 914 l 669 914 b 860 768 793 914 860 864 z m 1022 381 b 908 497 992 439 946 481 l 908 500 b 1100 774 1008 546 1100 654 b 669 1125 1100 1014 893 1125 l 125 1125 l 125 0 l 361 0 l 361 403 l 339 424 l 563 424 b 803 297 693 424 757 385 l 957 0 l 1222 0 z "},"S":{"ha":1174,"x_min":0,"x_max":0,"o":"m 1104 321 b 753 650 1104 471 988 593 b 571 696 726 656 596 689 b 338 818 389 742 338 771 b 588 929 338 871 404 929 b 915 782 718 929 838 871 l 1081 946 b 590 1139 958 1071 792 1139 b 97 813 268 1139 97 992 b 476 496 97 622 276 547 b 685 444 503 489 660 450 b 864 317 832 408 864 353 b 613 196 864 254 797 196 b 233 349 482 196 349 244 l 69 185 b 604 -14 211 49 404 -14 b 1104 321 951 -14 1104 147 z "},"T":{"ha":1069,"x_min":0,"x_max":0,"o":"m 1042 1125 l 28 1125 l 28 914 l 429 914 l 417 892 l 417 0 l 653 0 l 653 892 l 640 914 l 1042 914 z "},"U":{"ha":1294,"x_min":0,"x_max":0,"o":"m 1176 1125 l 940 1125 l 940 519 b 647 197 940 307 860 197 b 354 519 432 197 354 307 l 354 1125 l 118 1125 l 118 518 b 649 -14 118 179 289 -14 b 1176 518 1007 -14 1176 182 z "},"V":{"ha":1271,"x_min":0,"x_max":0,"o":"m 990 1125 l 674 403 l 638 290 l 635 290 l 600 403 l 283 1125 l 21 1125 l 531 0 l 740 0 l 1250 1125 z "},"W":{"ha":1582,"x_min":0,"x_max":0,"o":"m 1300 1125 l 1115 467 l 1093 350 l 1090 350 l 1067 467 l 881 1125 l 703 1125 l 517 467 l 494 347 l 492 347 l 468 467 l 285 1125 l 35 1125 l 363 0 l 608 0 l 763 547 l 786 672 l 789 672 l 813 547 l 967 0 l 1219 0 l 1547 1125 z "},"X":{"ha":1244,"x_min":0,"x_max":0,"o":"m 769 564 l 1214 1125 l 919 1125 l 683 826 l 625 729 l 622 729 l 561 826 l 325 1125 l 28 1125 l 475 563 l 28 0 l 324 0 l 560 300 l 619 400 l 622 400 l 683 300 l 918 0 l 1217 0 z "},"Y":{"ha":1289,"x_min":0,"x_max":0,"o":"m 974 1125 l 711 771 l 646 660 l 643 660 l 578 771 l 317 1125 l 21 1125 l 526 464 l 526 0 l 764 0 l 764 464 l 1268 1125 z "},"Z":{"ha":1194,"x_min":0,"x_max":0,"o":"m 1111 211 l 417 211 l 417 214 l 518 307 l 1104 960 l 1104 1125 l 97 1125 l 97 914 l 779 914 l 779 911 l 669 817 l 83 167 l 83 0 l 1111 0 z "},"[":{"ha":464,"x_min":0,"x_max":0,"o":"m 436 -76 l 282 -76 l 282 1072 l 436 1072 l 436 1260 l 83 1260 l 83 -264 l 436 -264 z "},"\\":{"ha":539,"x_min":0,"x_max":0,"o":"m 167 1194 l -42 1194 l 372 -69 l 581 -69 z "},"]":{"ha":465,"x_min":0,"x_max":0,"o":"m 382 1260 l 28 1260 l 28 1072 l 183 1072 l 183 -76 l 28 -76 l 28 -264 l 382 -264 z "},"^":{"ha":1058,"x_min":0,"x_max":0,"o":"m 610 1125 l 449 1125 l 104 576 l 356 576 l 496 808 l 528 881 l 531 881 l 563 808 l 703 576 l 954 576 z "},"_":{"ha":956,"x_min":0,"x_max":0,"o":"m 969 -90 l -14 -90 l -14 -271 l 969 -271 z "},"‘":{"ha":357,"x_min":0,"x_max":0,"o":"m 63 797 b 179 671 63 724 103 671 b 294 797 254 671 294 724 b 196 921 294 863 261 915 l 228 946 l 294 1106 l 194 1149 l 81 878 b 63 797 71 856 63 826 z "},"a":{"ha":1053,"x_min":0,"x_max":0,"o":"m 713 357 l 713 274 b 474 178 713 186 544 178 b 300 269 383 178 300 206 b 424 363 300 314 336 344 b 561 378 467 372 515 376 b 682 381 608 381 644 381 b 735 379 688 381 726 381 z m 944 543 b 535 888 944 783 771 888 b 132 767 386 888 251 851 l 275 622 b 532 696 354 675 444 696 b 708 585 636 696 703 658 l 732 563 b 654 564 724 564 661 564 b 69 272 432 564 69 538 b 465 -15 69 47 293 -15 b 710 49 554 -15 644 6 l 713 49 l 713 -1 l 944 -1 l 944 543 z "},"b":{"ha":1099,"x_min":0,"x_max":0,"o":"m 797 436 b 567 186 797 281 732 186 b 335 436 401 186 335 282 b 565 689 335 592 400 689 b 797 436 731 689 797 592 z m 1029 436 b 593 889 1029 696 888 889 b 350 807 493 889 400 857 l 347 807 l 347 1167 l 115 1167 l 115 -1 l 347 -1 l 347 63 l 350 63 b 593 -14 403 15 492 -14 b 1029 436 885 -14 1029 176 z "},"c":{"ha":943,"x_min":0,"x_max":0,"o":"m 754 279 b 539 185 689 215 625 185 b 301 431 371 185 301 290 b 542 689 301 578 383 689 b 749 599 628 689 690 660 l 901 751 b 540 889 815 838 699 889 b 69 432 239 889 69 685 b 538 -14 69 183 221 -14 b 906 128 682 -14 810 38 z "},"d":{"ha":1099,"x_min":0,"x_max":0,"o":"m 763 436 b 532 186 763 282 697 186 b 301 436 367 186 301 281 b 532 689 301 592 368 689 b 763 436 699 689 763 592 z m 983 1167 l 751 1167 l 751 807 l 749 807 b 506 889 699 857 604 889 b 69 436 210 889 69 696 b 504 -14 69 176 214 -14 b 749 63 607 -14 696 15 l 751 63 l 751 -1 l 983 -1 z "},"e":{"ha":1069,"x_min":0,"x_max":0,"o":"m 299 533 l 319 556 b 538 699 356 644 424 699 b 751 556 649 699 719 647 l 774 533 z m 1000 431 b 538 889 1000 686 849 889 b 69 431 240 889 69 693 b 550 -14 69 182 226 -14 b 918 119 696 -14 814 29 l 778 261 b 550 178 708 204 638 178 b 317 325 431 178 350 236 l 296 347 l 994 347 b 1000 431 999 375 1000 408 z "},"f":{"ha":678,"x_min":0,"x_max":0,"o":"m 653 874 l 383 874 l 397 896 b 521 989 397 954 433 989 b 653 965 567 989 611 981 l 653 1151 b 488 1175 611 1167 557 1175 b 164 896 294 1175 164 1068 l 175 874 l 39 874 l 39 689 l 175 689 l 164 668 l 164 0 l 396 0 l 396 667 l 385 689 l 653 689 z "},"g":{"ha":1099,"x_min":0,"x_max":0,"o":"m 763 464 b 532 244 763 336 701 244 b 301 464 379 244 301 331 b 532 690 301 594 374 690 b 763 464 689 690 763 597 z m 751 875 l 751 815 l 749 815 b 519 889 701 858 604 889 b 69 467 225 889 69 697 b 521 44 69 218 222 44 b 749 111 610 44 694 71 l 751 111 l 751 86 b 535 -100 751 -29 676 -100 b 274 -17 446 -100 353 -71 l 118 -172 b 535 -299 247 -260 376 -299 b 983 94 831 -299 983 -154 l 983 875 z "},"h":{"ha":1094,"x_min":0,"x_max":0,"o":"m 988 536 b 593 888 988 744 851 888 b 350 810 504 888 406 858 l 347 810 l 347 1167 l 115 1167 l 115 0 l 347 0 l 347 501 b 563 686 347 619 436 686 b 756 511 729 686 756 608 l 756 0 l 986 0 l 988 536 z "},"i":{"ha":461,"x_min":0,"x_max":0,"o":"m 347 875 l 115 875 l 115 0 l 347 0 z m 357 1061 b 232 1189 357 1133 306 1189 b 107 1061 157 1189 107 1133 b 232 933 107 989 157 933 b 357 1061 306 933 357 989 z "},"j":{"ha":468,"x_min":0,"x_max":0,"o":"m 354 875 l 122 875 l 122 -29 b 51 -101 122 -76 94 -101 b -79 -67 10 -101 -35 -90 l -81 -264 b 79 -299 -31 -283 24 -299 b 354 -36 253 -299 354 -215 z m 363 1061 b 238 1189 363 1133 313 1189 b 113 1061 164 1189 113 1133 b 238 933 113 989 163 933 b 363 1061 311 933 363 989 z "},"k":{"ha":1075,"x_min":0,"x_max":0,"o":"m 347 1167 l 115 1167 l 115 0 l 347 0 z m 638 444 l 638 447 l 1060 875 l 771 875 l 361 444 l 778 0 l 1075 0 z "},"l":{"ha":461,"x_min":0,"x_max":0,"o":"m 347 1167 l 115 1167 l 115 0 l 347 0 z "},"m":{"ha":1479,"x_min":0,"x_max":0,"o":"m 1371 511 b 1033 889 1371 746 1263 889 b 782 765 932 889 838 836 l 779 765 b 551 889 738 836 653 889 b 350 814 479 889 400 860 l 347 814 l 347 876 l 115 876 l 115 0 l 347 0 l 347 517 b 499 689 347 621 411 689 b 626 513 600 689 626 638 l 626 0 l 860 0 l 858 518 b 1010 689 858 617 913 689 b 1138 482 1115 689 1138 631 l 1138 0 l 1371 0 l 1371 511 z "},"n":{"ha":1094,"x_min":0,"x_max":0,"o":"m 988 543 b 603 889 988 761 835 889 b 350 800 506 889 410 854 l 347 800 l 347 876 l 115 876 l 115 0 l 347 0 l 347 511 b 563 689 347 626 435 689 b 756 521 729 689 756 626 l 756 0 l 986 0 l 988 543 z "},"o":{"ha":1069,"x_min":0,"x_max":0,"o":"m 768 438 b 535 185 768 288 697 185 b 301 438 374 185 301 288 b 535 689 301 589 371 689 b 768 438 697 689 768 588 z m 1000 438 b 533 889 1000 693 846 889 b 69 438 224 889 69 692 b 535 -14 69 183 224 -14 b 1000 438 843 -14 1000 185 z "},"p":{"ha":1099,"x_min":0,"x_max":0,"o":"m 797 436 b 565 186 797 281 731 186 b 335 436 400 186 335 279 b 567 689 335 590 401 689 b 797 436 732 689 797 590 z m 1029 438 b 593 888 1029 697 885 888 b 350 811 492 888 403 858 l 347 811 l 347 875 l 115 875 l 115 -293 l 347 -293 l 347 67 l 350 67 b 593 -15 400 17 493 -15 b 1029 438 888 -15 1029 178 z "},"q":{"ha":1099,"x_min":0,"x_max":0,"o":"m 763 436 b 532 186 763 279 699 186 b 301 436 368 186 301 281 b 532 689 301 590 367 689 b 763 436 697 689 763 590 z m 983 875 l 751 875 l 751 811 l 749 811 b 504 888 696 858 607 888 b 69 439 214 888 69 697 b 506 -15 69 178 210 -15 b 749 67 606 -15 699 18 l 751 67 l 751 -293 l 983 -293 z "},"r":{"ha":681,"x_min":0,"x_max":0,"o":"m 656 885 l 604 885 b 350 758 486 885 400 838 l 347 758 l 347 875 l 115 875 l 115 0 l 347 0 l 347 433 b 586 674 347 597 422 674 l 656 674 z "},"s":{"ha":974,"x_min":0,"x_max":0,"o":"m 904 261 b 624 514 904 393 808 468 b 483 551 604 519 501 547 b 329 628 376 578 329 592 b 490 697 329 653 360 697 b 738 599 585 697 675 660 l 882 742 b 489 888 782 839 653 888 b 96 625 240 888 96 776 b 400 367 96 465 250 404 b 557 326 419 363 538 331 b 671 251 658 301 671 279 b 499 178 671 219 632 178 b 218 300 399 178 292 222 l 69 150 b 503 -15 199 39 343 -15 b 904 261 774 -15 904 113 z "},"t":{"ha":753,"x_min":0,"x_max":0,"o":"m 604 254 b 475 185 560 206 522 185 b 388 294 424 185 388 222 l 388 668 l 375 689 l 646 689 l 646 875 l 375 875 l 388 896 l 388 1124 l 156 1000 l 156 896 l 167 875 l 39 875 l 39 689 l 167 689 l 156 668 l 156 294 b 454 -14 156 90 253 -14 b 740 118 564 -14 650 29 z "},"u":{"ha":1083,"x_min":0,"x_max":0,"o":"m 969 875 l 738 875 l 738 364 b 526 186 738 249 653 186 b 340 354 385 186 340 249 l 340 875 l 108 875 l 108 342 b 492 -14 107 126 226 -14 b 735 75 588 -14 678 18 l 738 75 l 738 -1 l 969 -1 z "},"v":{"ha":1014,"x_min":0,"x_max":0,"o":"m 744 875 l 550 406 l 507 274 l 504 274 l 461 406 l 269 875 l 13 875 l 401 0 l 611 0 l 1001 875 z "},"w":{"ha":1343,"x_min":0,"x_max":0,"o":"m 1082 875 l 961 442 l 936 293 l 933 293 l 906 442 l 768 875 l 575 875 l 439 442 l 411 294 l 408 294 l 383 442 l 263 875 l 18 875 l 288 0 l 525 0 l 642 396 l 671 540 l 674 540 l 700 396 l 817 0 l 1053 0 l 1325 875 z "},"x":{"ha":1025,"x_min":0,"x_max":0,"o":"m 654 439 l 996 875 l 710 875 l 565 689 l 514 597 l 511 597 l 460 689 l 318 875 l 28 875 l 371 439 l 25 0 l 313 0 l 468 200 l 510 278 l 513 278 l 556 200 l 711 0 l 1000 0 z "},"y":{"ha":1071,"x_min":0,"x_max":0,"o":"m 797 875 l 590 388 l 551 257 l 549 257 l 504 388 l 275 875 l 19 875 l 435 19 b 304 -100 394 -76 351 -100 b 111 -37 257 -100 201 -85 l 111 -247 b 326 -299 190 -286 253 -299 b 628 -82 464 -299 571 -208 l 1053 875 z "},"z":{"ha":989,"x_min":0,"x_max":0,"o":"m 913 201 l 388 201 l 388 204 l 494 289 l 908 724 l 908 874 l 86 874 l 86 672 l 589 672 l 589 669 l 486 592 l 76 156 l 76 0 l 913 0 z "},"{":{"ha":544,"x_min":0,"x_max":0,"o":"m 531 -93 l 472 -93 b 353 15 365 -93 353 -78 l 353 297 b 263 499 353 399 350 444 b 353 699 336 547 353 603 l 353 982 b 472 1090 353 1074 364 1090 l 531 1090 l 531 1269 b 332 1265 531 1269 361 1269 b 157 1017 186 1247 157 1131 l 157 696 b 56 578 157 631 133 592 l 56 419 b 157 288 140 406 157 358 l 157 -19 b 332 -268 157 -133 186 -250 b 531 -272 361 -272 531 -272 z "},"|":{"ha":526,"x_min":0,"x_max":0,"o":"m 367 1194 l 160 1194 l 160 -69 l 367 -69 z "},"}":{"ha":544,"x_min":0,"x_max":0,"o":"m 489 578 b 388 696 411 592 388 631 l 388 1017 b 214 1265 388 1131 358 1247 b 14 1269 185 1269 14 1269 l 14 1090 l 74 1090 b 192 982 181 1090 192 1074 l 192 699 b 282 499 192 603 208 547 b 192 297 194 444 192 399 l 192 15 b 74 -93 192 -78 179 -93 l 14 -93 l 14 -272 b 214 -268 14 -272 185 -272 b 388 -19 358 -250 388 -133 l 388 288 b 489 419 388 358 404 406 z "},"~":{"ha":882,"x_min":0,"x_max":0,"o":"m 719 614 b 596 489 699 542 660 489 b 535 504 576 489 557 494 b 463 543 511 515 488 529 b 294 604 411 572 354 604 b 42 414 171 604 76 528 l 163 292 b 285 417 183 363 222 417 b 347 401 304 417 325 411 b 419 363 371 390 394 376 b 588 303 471 333 526 303 b 840 490 708 303 804 375 z "},"¡":{"ha":471,"x_min":0,"x_max":0,"o":"m 325 804 l 144 804 l 100 0 l 369 0 z m 365 1001 b 235 1139 365 1081 319 1139 b 106 1001 151 1139 106 1081 b 235 863 106 921 150 863 b 365 1001 319 863 365 922 z "},"¢":{"ha":943,"x_min":0,"x_max":0,"o":"m 451 783 l 375 390 l 381 363 b 299 556 324 407 299 475 b 469 806 299 671 350 774 z m 754 406 b 553 315 686 343 629 317 b 539 315 551 314 540 315 l 554 336 l 642 776 l 633 800 b 749 728 678 786 715 763 l 901 879 b 676 1004 832 946 758 982 l 692 1026 l 715 1139 l 524 1139 l 503 1040 l 510 1018 b 69 556 260 1011 69 824 b 339 140 69 360 163 204 l 319 122 l 293 -14 l 485 -14 l 506 93 l 496 113 b 538 111 511 111 522 111 b 904 254 679 111 799 158 z "},"£":{"ha":1088,"x_min":0,"x_max":0,"o":"m 990 950 b 578 1139 889 1068 744 1139 b 158 803 328 1139 158 1039 b 174 689 158 772 165 731 l 189 667 l 100 667 l 100 458 l 243 458 l 235 435 b 76 186 256 286 197 242 l 76 0 l 972 0 l 972 211 l 410 211 l 410 214 b 469 435 461 265 481 333 l 454 458 l 750 458 l 750 667 l 407 667 l 415 689 b 399 810 404 736 399 775 b 572 931 399 892 461 931 b 831 790 669 931 750 892 l 990 950 z "},"⁄":{"ha":951,"x_min":0,"x_max":0,"o":"m 618 1139 l 206 -14 l 372 -14 l 785 1139 z "},"¥":{"ha":1317,"x_min":0,"x_max":0,"o":"m 988 1125 l 722 767 l 660 653 l 657 653 l 593 767 l 331 1125 l 35 1125 l 388 665 l 413 644 l 226 644 l 226 465 l 550 465 l 540 451 l 540 388 l 549 372 l 226 372 l 226 193 l 551 193 l 540 171 l 540 0 l 575 0 l 742 0 l 778 0 l 778 171 l 767 193 l 1093 193 l 1093 372 l 771 372 l 778 386 l 778 449 l 771 464 l 1093 465 l 1093 644 l 903 642 l 929 664 l 1282 1125 z "},"ƒ":{"ha":665,"x_min":0,"x_max":0,"o":"m 624 874 l 356 874 l 368 896 b 492 989 368 958 410 989 b 624 965 536 989 581 981 l 624 1151 b 458 1175 578 1168 521 1175 b 135 896 282 1175 135 1083 l 146 874 l 31 874 l 31 685 l 146 685 l 131 660 l 131 92 b 47 -82 131 15 126 -67 b -15 -85 29 -85 8 -87 b -139 -46 -53 -81 -85 -69 l -139 -262 b 33 -299 -78 -283 -24 -299 b 367 106 276 -299 367 -147 l 367 663 l 356 685 l 624 685 z "},"§":{"ha":990,"x_min":0,"x_max":0,"o":"m 693 383 b 628 283 693 344 660 310 l 406 404 b 303 514 344 439 303 475 b 372 614 303 551 340 586 l 579 497 b 624 471 593 489 608 481 b 661 443 638 463 650 453 b 693 383 682 425 693 404 z m 929 403 b 643 714 929 561 764 650 b 549 763 611 731 578 747 b 468 808 519 778 492 793 b 410 881 425 838 410 860 b 515 936 410 907 438 936 b 760 803 596 936 681 896 l 913 951 b 515 1138 790 1075 654 1138 b 165 882 347 1138 165 1060 b 215 749 165 831 188 785 b 68 501 142 692 68 613 b 299 215 68 360 189 276 b 467 125 353 183 413 156 b 592 36 521 96 563 67 b 611 -8 604 21 611 1 b 515 -75 611 -49 588 -75 b 258 50 432 -75 343 -40 l 100 -106 b 515 -279 235 -231 363 -279 b 857 -6 679 -279 857 -201 b 797 156 857 65 833 113 b 929 403 869 217 929 296 z "},"¤":{"ha":903,"x_min":0,"x_max":0,"o":"m 583 560 b 546 467 583 524 571 493 b 451 429 521 442 490 429 b 358 468 414 429 383 442 b 321 560 333 493 321 524 b 358 654 321 597 333 626 b 451 693 383 681 414 693 b 544 654 489 693 519 681 b 583 560 571 628 583 597 z m 699 933 l 600 838 b 451 875 554 863 506 875 b 301 838 397 875 347 863 l 204 933 l 76 810 l 175 708 b 136 560 149 661 136 611 b 174 411 136 507 149 457 l 78 313 l 203 188 l 300 283 b 451 246 347 258 397 246 b 600 282 506 246 554 258 l 699 186 l 824 311 l 729 408 b 767 560 754 454 767 506 b 729 708 767 611 754 661 l 826 810 z "},"'":{"ha":368,"x_min":0,"x_max":0,"o":"m 76 1167 l 111 717 l 257 717 l 292 1167 z "},"“":{"ha":644,"x_min":0,"x_max":0,"o":"m 63 797 b 179 671 63 724 103 671 b 294 797 254 671 294 724 b 196 921 294 863 261 915 l 228 946 l 294 1106 l 194 1149 l 81 878 b 63 797 71 856 63 826 z m 350 797 b 467 671 350 724 390 671 b 582 797 542 671 582 724 b 483 921 582 863 549 915 l 515 946 l 582 1106 l 482 1149 l 368 878 b 350 797 360 856 350 826 z "},"«":{"ha":1074,"x_min":0,"x_max":0,"o":"m 414 311 b 353 353 414 311 375 339 l 414 397 l 543 528 l 400 672 l 76 354 l 400 36 l 543 181 z m 868 311 b 807 353 868 311 829 339 l 868 397 l 997 528 l 854 672 l 531 354 l 854 36 l 997 181 z "},"‹":{"ha":619,"x_min":0,"x_max":0,"o":"m 414 311 b 353 353 414 311 375 339 l 414 397 l 543 528 l 400 672 l 76 354 l 400 36 l 543 181 z "},"›":{"ha":619,"x_min":0,"x_max":0,"o":"m 219 672 l 76 528 l 204 397 l 267 353 b 204 311 244 339 204 311 l 76 181 l 219 36 l 543 354 z "},"ﬁ":{"ha":1132,"x_min":0,"x_max":0,"o":"m 1017 701 l 1017 874 l 1017 875 l 383 874 l 397 896 b 521 989 396 964 451 989 b 653 965 567 989 611 981 l 653 1151 b 488 1175 604 1168 549 1175 b 164 896 297 1175 164 1071 l 175 874 l 39 874 l 39 689 l 175 689 l 164 668 l 164 0 l 396 0 l 396 667 l 385 689 l 785 689 l 785 0 l 1017 0 z m 1026 1061 b 901 1189 1026 1135 975 1189 b 776 1061 828 1189 776 1133 b 901 933 776 988 828 933 b 1026 1061 975 933 1026 989 z "},"ﬂ":{"ha":1118,"x_min":0,"x_max":0,"o":"m 1003 1167 l 488 1165 b 164 896 294 1165 164 1068 l 175 874 l 39 874 l 39 689 l 175 689 l 164 668 l 164 0 l 396 0 l 396 667 l 385 689 l 646 689 l 646 874 l 383 874 l 397 896 b 521 986 397 954 433 986 b 771 985 529 993 711 985 l 771 0 l 1003 0 z "},"–":{"ha":922,"x_min":0,"x_max":0,"o":"m 881 565 l 42 565 l 42 367 l 881 367 z "},"†":{"ha":894,"x_min":0,"x_max":0,"o":"m 811 839 l 539 825 l 556 1125 l 338 1125 l 354 825 l 83 839 l 83 622 l 356 639 l 339 -250 l 554 -250 l 538 639 l 811 622 z "},"‡":{"ha":892,"x_min":0,"x_max":0,"o":"m 811 839 l 540 825 l 557 1124 l 338 1124 l 354 825 l 83 839 l 83 622 l 357 638 l 357 236 l 83 253 l 83 35 l 354 50 l 338 -249 l 557 -249 l 540 50 l 811 35 l 811 253 l 538 236 l 538 638 l 811 622 z "},"·":{"ha":439,"x_min":0,"x_max":0,"o":"m 342 564 b 213 703 342 646 297 703 b 83 564 128 703 83 644 b 213 424 83 482 128 424 b 342 564 296 424 342 482 z "},"¶":{"ha":1069,"x_min":0,"x_max":0,"o":"m 972 1125 l 399 1125 b 0 754 181 1125 0 958 b 343 388 0 565 146 413 b 347 376 346 388 344 378 l 347 -251 l 571 -251 l 571 899 l 558 921 l 667 921 l 656 897 l 656 -251 l 878 -251 l 878 899 l 867 921 l 972 921 z "},"•":{"ha":610,"x_min":0,"x_max":0,"o":"m 485 563 b 243 804 485 696 376 804 b 0 563 108 804 0 696 b 243 319 0 428 108 319 b 485 563 376 319 485 428 z "},"‚":{"ha":357,"x_min":0,"x_max":0,"o":"m 294 108 b 179 233 294 182 256 233 b 63 108 103 233 63 182 b 161 -15 63 42 96 -10 l 131 -40 l 63 -200 l 163 -243 l 276 28 b 294 108 286 50 294 79 z "},"„":{"ha":644,"x_min":0,"x_max":0,"o":"m 582 108 b 467 233 582 182 543 233 b 350 108 390 233 350 182 b 449 -15 350 42 383 -10 l 418 -40 l 350 -200 l 450 -243 l 564 28 b 582 108 574 50 582 79 z m 294 108 b 179 233 294 182 256 233 b 63 108 103 233 63 182 b 161 -15 63 42 96 -10 l 131 -40 l 63 -200 l 163 -243 l 276 28 b 294 108 286 50 294 79 z "},"”":{"ha":644,"x_min":0,"x_max":0,"o":"m 582 1013 b 467 1139 582 1086 543 1139 b 350 1013 390 1139 350 1086 b 449 890 350 947 383 894 l 418 865 l 350 704 l 450 661 l 564 933 b 582 1013 574 956 582 983 z m 294 1013 b 179 1139 294 1086 256 1139 b 63 1013 103 1139 63 1086 b 161 890 63 947 96 894 l 131 865 l 63 704 l 163 661 l 276 933 b 294 1013 286 956 294 983 z "},"»":{"ha":1074,"x_min":0,"x_max":0,"o":"m 219 672 l 76 528 l 204 397 l 267 353 b 204 311 244 339 204 311 l 76 181 l 219 36 l 543 354 z m 674 672 l 531 528 l 658 397 l 721 353 b 658 311 699 339 658 311 l 531 181 l 674 36 l 997 354 z "},"…":{"ha":1217,"x_min":0,"x_max":0,"o":"m 328 118 b 206 251 328 197 286 251 b 83 118 125 251 83 196 b 206 -14 83 42 125 -14 b 328 118 285 -14 328 42 z m 724 118 b 601 251 724 197 682 251 b 479 118 521 251 479 196 b 601 -14 479 42 521 -14 b 724 118 681 -14 724 42 z m 1119 118 b 997 251 1119 197 1078 251 b 875 118 917 251 875 196 b 997 -14 875 42 917 -14 b 1119 118 1076 -14 1119 42 z "},"‰":{"ha":1990,"x_min":0,"x_max":0,"o":"m 392 818 b 299 669 392 706 357 669 b 206 818 242 669 206 708 b 299 972 206 932 240 972 b 392 818 360 972 392 931 z m 1143 301 b 1050 154 1143 190 1108 154 b 957 301 993 154 957 193 b 1050 457 957 417 992 457 b 1143 301 1111 457 1143 414 z m 1758 301 b 1665 154 1758 190 1724 154 b 1572 301 1608 154 1572 193 b 1665 457 1572 417 1607 457 b 1758 301 1726 457 1758 414 z m 576 818 b 299 1140 576 988 489 1140 b 21 818 111 1140 21 988 b 299 501 21 647 108 501 b 576 818 490 501 576 647 z m 790 1139 l 381 -14 l 560 -14 l 971 1139 z m 1329 301 b 1050 624 1329 472 1240 624 b 772 301 863 624 772 472 b 1050 -14 772 131 860 -14 b 1329 301 1242 -14 1329 131 z m 1944 301 b 1665 624 1944 472 1856 624 b 1388 301 1478 624 1388 472 b 1665 -14 1388 131 1475 -14 b 1944 301 1857 -14 1944 131 z "},"¿":{"ha":999,"x_min":0,"x_max":0,"o":"m 751 329 b 483 190 675 233 594 190 b 317 292 401 190 317 233 b 417 388 317 336 350 361 b 447 399 421 390 444 394 b 683 732 603 457 683 542 l 683 804 l 456 804 l 456 747 b 363 590 456 653 438 621 b 318 572 360 586 324 578 b 76 290 189 519 76 443 b 483 -14 76 104 267 -14 b 922 175 660 -14 799 46 z m 697 1001 b 568 1139 697 1083 653 1139 b 440 1001 486 1139 440 1083 b 569 863 440 918 485 863 b 697 1001 653 863 697 919 z "},"`":{"ha":1035,"x_min":0,"x_max":0,"o":"m 442 1357 l 308 1224 l 608 965 l 700 1057 z "},"´":{"ha":1049,"x_min":0,"x_max":0,"o":"m 603 1357 l 346 1057 l 436 965 l 738 1224 z "},"ˆ":{"ha":1061,"x_min":0,"x_max":0,"o":"m 531 1332 l 528 1332 l 247 1054 l 335 967 l 528 1125 l 722 967 l 810 1054 z "},"˜":{"ha":1061,"x_min":0,"x_max":0,"o":"m 763 1254 b 649 1146 739 1165 692 1146 b 596 1160 635 1146 615 1151 b 533 1194 574 1169 554 1181 b 382 1247 492 1219 433 1247 b 169 1075 279 1247 196 1165 l 263 982 b 374 1089 290 1071 338 1089 b 429 1075 389 1089 410 1083 b 490 1042 451 1067 471 1054 b 640 989 535 1015 589 989 b 856 1160 738 989 822 1054 z "},"¯":{"ha":1044,"x_min":0,"x_max":0,"o":"m 833 1169 l 269 1169 l 269 1024 l 833 1024 z "},"˘":{"ha":988,"x_min":0,"x_max":0,"o":"m 633 1192 b 496 1097 603 1128 567 1097 b 360 1192 426 1097 389 1128 l 204 1192 b 496 957 250 1039 344 957 b 788 1192 646 957 742 1039 z "},"˙":{"ha":628,"x_min":0,"x_max":0,"o":"m 433 1106 b 317 1229 433 1178 389 1229 b 200 1106 244 1229 200 1176 b 317 983 200 1035 243 983 b 433 1106 389 983 433 1035 z "},"¨":{"ha":1035,"x_min":0,"x_max":0,"o":"m 426 1096 b 321 1210 426 1163 390 1210 b 217 1096 253 1210 217 1163 b 321 982 217 1031 251 982 b 426 1096 389 982 426 1031 z m 778 1096 b 672 1210 778 1163 742 1210 b 568 1096 604 1210 568 1163 b 672 982 568 1031 603 982 b 778 1096 740 982 778 1031 z "},"˚":{"ha":1042,"x_min":0,"x_max":0,"o":"m 569 1139 b 511 1076 569 1100 551 1076 b 454 1139 472 1076 454 1101 b 511 1203 454 1178 472 1203 b 569 1139 551 1203 569 1178 z m 681 1139 b 511 1313 681 1238 624 1313 b 342 1139 399 1313 342 1238 b 511 965 342 1040 399 965 b 681 1139 624 965 681 1042 z "},"¸":{"ha":1063,"x_min":0,"x_max":0,"o":"m 603 6 l 458 6 l 519 -56 b 514 -126 536 -72 543 -99 l 411 -228 l 510 -325 l 646 -189 b 647 -37 697 -139 693 -82 z "},"˝":{"ha":1033,"x_min":0,"x_max":0,"o":"m 440 1281 l 235 1029 l 318 946 l 569 1151 z m 760 1281 l 554 1029 l 638 946 l 889 1151 z "},"˛":{"ha":1190,"x_min":0,"x_max":0,"o":"m 818 -215 b 781 -256 808 -226 781 -254 b 751 -268 772 -264 763 -267 b 707 -224 731 -268 708 -247 b 719 -189 707 -212 710 -199 l 890 3 l 758 19 l 625 -117 b 568 -251 592 -150 565 -201 b 729 -403 571 -340 647 -407 b 846 -349 782 -400 818 -378 b 897 -293 863 -332 867 -326 z "},"ˇ":{"ha":978,"x_min":0,"x_max":0,"o":"m 668 1332 l 475 1175 l 282 1332 l 194 1246 l 472 967 l 475 967 l 756 1246 z "},"—":{"ha":1304,"x_min":0,"x_max":0,"o":"m 1263 565 l 42 565 l 42 367 l 1263 367 z "},"Æ":{"ha":1611,"x_min":0,"x_max":0,"o":"m 489 471 l 511 490 l 700 892 l 690 914 l 763 914 l 750 892 l 750 493 l 764 471 z m 1514 211 l 971 211 l 986 233 l 986 435 l 971 457 l 1447 457 l 1447 668 l 971 668 l 986 690 l 986 892 l 975 914 l 1514 914 l 1514 1125 l 563 1125 l 21 0 l 279 0 l 392 236 l 385 260 l 763 260 l 749 238 l 750 0 l 1514 0 z "},"ª":{"ha":683,"x_min":0,"x_max":0,"o":"m 458 785 l 458 729 b 307 671 458 674 357 671 b 190 729 239 671 190 692 b 271 790 190 758 214 778 b 358 800 297 796 328 799 b 443 801 389 801 418 801 b 474 801 444 801 468 801 z m 607 918 b 336 1139 607 1090 463 1139 b 63 1046 235 1139 153 1115 l 163 950 b 335 1008 215 994 275 1008 b 458 947 414 1008 456 986 b 472 929 458 946 472 929 b 438 929 467 929 440 929 b 42 729 292 931 42 915 b 306 538 42 581 190 538 b 458 578 360 538 413 547 l 458 546 l 607 546 l 607 918 z "},"Ł":{"ha":994,"x_min":0,"x_max":0,"o":"m 974 211 l 322 211 l 344 233 l 344 426 l 333 447 l 628 560 l 628 778 l 333 665 l 344 690 l 344 1125 l 108 1125 l 108 601 l 118 583 l 11 540 l 11 324 l 119 367 l 108 342 l 108 0 l 974 0 z "},"Ø":{"ha":1311,"x_min":0,"x_max":0,"o":"m 738 903 l 400 325 l 399 296 b 317 556 339 368 317 456 b 656 929 317 772 417 929 b 758 915 689 929 731 925 z m 994 556 b 656 196 994 344 897 196 b 513 221 606 196 553 203 l 533 235 l 882 832 l 882 856 b 994 556 964 790 994 685 z m 1235 556 b 997 1049 1235 764 1163 938 l 1015 1060 l 1051 1121 l 914 1203 l 871 1132 l 871 1108 b 656 1140 808 1128 731 1140 b 76 556 276 1140 76 890 b 281 92 76 364 146 196 l 258 82 l 192 -32 l 331 -114 l 399 4 l 396 29 b 656 -17 474 -4 565 -17 b 1235 556 1029 -17 1235 219 z "},"Œ":{"ha":1621,"x_min":0,"x_max":0,"o":"m 794 556 b 556 197 794 332 711 197 b 317 556 401 197 317 332 b 556 928 317 786 401 928 b 794 556 710 928 794 781 z m 1524 210 l 1006 210 l 1017 235 l 1017 433 l 1006 457 l 1471 457 l 1471 668 l 1006 668 l 1017 689 l 1018 892 l 1007 915 l 1524 915 l 1524 1126 l 781 1126 l 781 1063 b 556 1139 728 1113 640 1139 b 76 556 232 1139 76 879 b 556 -14 76 232 232 -14 b 781 64 640 -14 726 15 l 781 -1 l 1524 -1 z "},"º":{"ha":721,"x_min":0,"x_max":0,"o":"m 496 839 b 343 671 496 738 449 671 b 190 839 238 671 190 738 b 343 1006 190 940 236 1006 b 496 839 449 1006 496 939 z m 644 839 b 343 1139 644 1008 544 1139 b 42 839 142 1139 42 1007 b 343 538 42 669 142 538 b 644 839 543 538 644 669 z "},"æ":{"ha":1651,"x_min":0,"x_max":0,"o":"m 701 357 l 701 281 b 475 183 701 192 560 183 b 303 272 408 183 303 192 b 422 365 303 317 338 347 b 551 381 463 374 508 379 b 676 382 597 383 640 382 b 721 382 682 382 711 382 z m 915 535 l 936 557 b 1142 697 971 644 1035 697 b 1344 557 1242 697 1310 646 l 1364 535 z m 1582 431 b 1142 889 1582 676 1426 889 b 838 746 1013 889 900 828 b 835 744 838 746 836 744 b 518 888 764 842 651 888 b 126 758 375 888 253 856 l 268 617 b 522 700 347 681 432 700 b 694 589 624 700 690 665 l 717 565 b 640 567 717 565 647 567 b 69 275 422 567 69 540 b 475 -15 69 57 285 -15 b 826 117 611 -15 740 14 b 828 118 826 117 828 117 b 1147 -12 919 32 1032 -12 b 1514 133 1293 -12 1410 38 l 1372 271 b 1147 179 1304 211 1235 179 b 936 318 1040 179 968 232 l 915 340 l 1576 340 b 1582 431 1581 400 1582 411 z "},"ı":{"ha":482,"x_min":0,"x_max":0,"o":"m 357 875 l 125 875 l 125 0 l 357 0 z "},"ł":{"ha":447,"x_min":0,"x_max":0,"o":"m 438 771 l 329 726 l 340 751 l 340 1167 l 108 1167 l 108 660 l 119 642 l 11 596 l 11 386 l 118 432 l 108 406 l 108 0 l 340 0 l 340 497 l 329 518 l 438 563 z "},"ø":{"ha":1000,"x_min":0,"x_max":0,"o":"m 547 661 l 338 304 l 332 271 b 286 438 300 311 286 378 b 500 689 286 592 351 689 b 572 678 524 689 554 685 z m 714 438 b 500 186 714 283 649 186 b 432 197 482 186 449 189 l 460 219 l 667 568 l 672 604 b 714 438 704 556 714 494 z m 931 438 b 789 797 931 578 892 703 l 810 810 l 863 897 l 732 971 l 682 883 l 679 856 b 499 889 629 878 561 889 b 69 438 211 889 69 693 b 215 76 69 296 119 157 l 193 61 l 142 -25 l 269 -101 l 322 -14 l 322 15 b 503 -15 374 -6 444 -15 b 931 438 789 -15 931 182 z "},"œ":{"ha":1686,"x_min":0,"x_max":0,"o":"m 913 533 l 933 556 b 1151 699 969 644 1038 699 b 1365 556 1263 699 1333 647 l 1388 533 z m 1617 432 b 1154 889 1617 688 1465 889 b 838 768 1026 889 915 839 b 519 889 763 843 654 889 b 69 438 210 889 69 692 b 521 -14 69 183 210 -14 b 833 104 653 -14 763 31 b 1165 -14 908 35 1028 -14 b 1535 121 1313 -14 1431 29 l 1394 263 b 1167 178 1324 204 1254 178 b 933 325 1047 178 967 236 l 911 347 l 1611 347 b 1617 432 1615 375 1617 408 z m 740 438 b 521 185 740 288 683 185 b 297 438 360 185 297 288 b 521 689 297 589 357 689 b 740 438 683 689 740 588 z "},"ß":{"ha":1017,"x_min":0,"x_max":0,"o":"m 958 353 b 758 640 958 497 868 608 l 758 643 b 875 847 829 685 875 767 b 468 1174 875 1049 714 1174 b 101 867 271 1174 101 1094 l 100 -1 l 333 -1 l 333 833 b 467 967 333 929 364 967 b 642 840 571 967 642 917 b 493 722 642 765 593 721 l 375 724 l 375 518 l 544 518 b 726 351 654 518 726 451 b 553 193 726 251 658 193 b 372 235 485 193 449 200 l 372 15 b 565 -15 439 -10 481 -15 b 958 353 793 -15 958 139 z "},"¹":{"ha":460,"x_min":0,"x_max":0,"o":"m 356 1125 l 219 1125 l 42 960 l 144 860 l 163 878 l 189 914 l 211 942 l 199 874 l 199 493 l 356 493 z "},"¬":{"ha":810,"x_min":0,"x_max":0,"o":"m 768 514 l 42 514 l 42 326 l 564 326 l 564 69 l 768 69 z "},"µ":{"ha":1039,"x_min":0,"x_max":0,"o":"m 925 875 l 690 875 l 690 364 b 510 186 690 249 628 186 b 347 360 414 186 347 244 l 347 875 l 115 875 l 115 -292 l 331 -292 l 331 32 l 332 33 b 499 -22 381 -3 433 -22 b 689 40 565 -22 638 1 b 690 42 689 40 690 42 l 690 -8 l 925 -8 z "},"™":{"ha":1218,"x_min":0,"x_max":0,"o":"m 549 1124 l 32 1124 l 32 1021 l 242 1021 l 233 1003 l 233 561 l 347 561 l 347 1004 l 339 1021 l 549 1021 z m 1201 1124 l 1103 1124 l 924 794 l 901 736 l 879 794 l 706 1117 l 703 1124 l 601 1124 l 601 561 l 715 561 l 715 878 l 728 842 l 896 554 l 906 554 l 1071 840 l 1086 878 l 1086 561 l 1201 561 z "},"Ð":{"ha":1247,"x_min":0,"x_max":0,"o":"m 931 563 b 594 211 931 360 886 211 l 349 211 l 361 249 l 361 435 l 349 457 l 632 457 l 632 668 l 349 668 l 361 690 l 361 878 l 349 915 l 589 915 b 931 563 883 915 931 763 z m 1171 563 b 603 1125 1171 818 1086 1125 l 125 1125 l 125 690 l 138 668 l 35 668 l 35 457 l 138 457 l 125 435 l 125 0 l 608 0 b 1171 563 1089 0 1171 307 z "},"½":{"ha":1246,"x_min":0,"x_max":0,"o":"m 356 1125 l 219 1125 l 42 960 l 144 860 l 163 878 l 189 914 l 211 942 l 199 874 l 199 493 l 356 493 z m 658 1139 l 246 -14 l 413 -14 l 825 1139 z m 1169 442 b 932 631 1169 540 1093 631 b 676 504 832 631 751 590 l 782 400 b 932 486 828 463 881 486 b 1011 442 1000 486 1011 461 b 931 382 1011 422 1001 406 l 856 357 b 685 129 735 317 685 219 l 685 -1 l 1169 -1 l 1169 143 l 836 143 b 844 156 838 144 844 154 b 907 218 850 183 871 206 l 996 247 b 1169 442 1114 286 1169 350 z "},"±":{"ha":986,"x_min":0,"x_max":0,"o":"m 861 222 l 125 222 l 125 22 l 861 22 z m 861 796 l 579 796 l 592 818 l 592 1092 l 394 1092 l 394 818 l 407 796 l 125 796 l 125 596 l 407 596 l 394 574 l 394 300 l 592 300 l 592 574 l 579 596 l 861 596 z "},"Þ":{"ha":1176,"x_min":0,"x_max":0,"o":"m 874 561 b 690 406 874 471 822 406 l 339 406 l 361 429 l 361 693 l 339 717 l 690 717 b 874 561 822 717 874 656 z m 1114 561 b 690 926 1114 775 957 926 l 338 926 l 360 949 l 360 1125 l 125 1125 l 125 0 l 361 0 l 361 174 l 339 196 l 690 196 b 1114 561 957 196 1114 356 z "},"¼":{"ha":1211,"x_min":0,"x_max":0,"o":"m 792 271 l 824 300 l 886 372 l 908 407 l 907 283 l 913 271 z m 356 1125 l 219 1125 l 42 960 l 144 860 l 163 878 l 189 914 l 211 942 l 199 874 l 199 493 l 356 493 z m 657 1139 l 244 -14 l 410 -14 l 822 1139 z m 1135 272 l 1063 272 l 1067 286 l 1067 631 l 933 631 l 588 236 l 588 128 l 913 128 l 908 111 l 908 -1 l 1067 -1 l 1065 113 l 1061 128 l 1135 128 z "},"÷":{"ha":972,"x_min":0,"x_max":0,"o":"m 604 226 b 483 357 604 304 564 357 b 364 226 406 357 364 304 b 483 94 364 147 404 94 b 604 226 563 94 604 147 z m 854 664 l 118 664 l 118 463 l 854 463 z m 604 899 b 483 1031 604 978 564 1031 b 364 899 406 1031 364 978 b 483 768 364 821 404 768 b 604 899 563 768 604 821 z "},"¦":{"ha":494,"x_min":0,"x_max":0,"o":"m 350 499 l 144 499 l 144 -69 l 350 -69 z m 350 1194 l 144 1194 l 144 625 l 350 625 z "},"°":{"ha":619,"x_min":0,"x_max":0,"o":"m 401 864 b 292 733 401 786 368 733 b 182 864 217 733 182 786 b 292 996 182 944 215 996 b 401 864 368 996 401 943 z m 543 864 b 292 1138 543 1019 460 1138 b 42 864 124 1138 42 1018 b 292 590 42 710 124 590 b 543 864 458 590 543 711 z "},"þ":{"ha":1099,"x_min":0,"x_max":0,"o":"m 797 436 b 565 192 797 279 732 192 b 335 436 399 192 335 279 b 567 682 335 592 401 682 b 797 436 732 682 797 593 z m 1029 436 b 571 888 1029 699 881 888 b 349 825 476 888 407 871 b 347 825 349 825 347 825 l 347 1167 l 115 1167 l 115 -292 l 347 -292 b 339 49 347 -292 347 10 b 339 50 339 50 340 50 b 571 -14 406 -3 478 -14 b 1029 436 883 -14 1029 171 z "},"¾":{"ha":1424,"x_min":0,"x_max":0,"o":"m 1004 271 l 1036 300 l 1099 372 l 1121 407 l 1119 283 l 1125 271 z m 619 696 b 539 835 619 760 586 806 b 538 836 539 835 538 836 b 608 957 576 863 608 915 b 353 1139 608 1060 521 1139 b 82 1021 246 1139 169 1108 l 188 922 b 351 996 240 982 285 996 b 450 957 438 996 450 971 b 360 899 450 944 442 907 b 246 894 340 897 246 894 l 246 764 b 364 761 246 764 339 763 b 463 693 444 754 463 721 b 350 636 463 679 444 636 b 185 718 282 636 240 656 l 76 615 b 350 493 146 538 232 493 b 619 696 503 493 619 579 z m 868 1139 l 456 -14 l 622 -14 l 1035 1139 z m 1347 272 l 1275 272 l 1279 286 l 1279 631 l 1146 631 l 799 236 l 799 128 l 1125 128 l 1121 111 l 1121 -1 l 1279 -1 l 1278 113 l 1274 128 l 1347 128 z "},"²":{"ha":647,"x_min":0,"x_max":0,"o":"m 571 943 b 333 1132 571 1042 493 1132 b 76 1007 232 1132 153 1093 l 182 903 b 332 988 228 965 281 988 b 411 943 400 988 411 964 b 331 885 411 925 401 907 l 256 860 b 85 631 135 819 85 722 l 85 501 l 569 501 l 569 644 l 236 644 b 244 658 238 647 244 656 b 307 719 250 685 271 708 l 396 750 b 571 943 514 788 571 853 z "},"®":{"ha":1347,"x_min":0,"x_max":0,"o":"m 779 675 b 700 608 779 631 751 608 l 540 608 l 549 628 l 549 725 l 540 744 l 694 744 b 779 675 753 744 779 724 z m 876 450 b 817 517 863 481 844 503 b 925 675 871 539 925 608 b 694 886 925 819 813 886 l 406 886 l 406 225 l 549 225 l 549 446 l 540 465 l 639 465 b 739 401 700 465 719 447 l 815 225 l 976 225 z m 1131 556 b 674 88 1131 306 925 88 b 217 556 422 88 217 306 b 674 1025 217 807 424 1025 b 1131 556 924 1025 1131 807 z m 1274 557 b 674 1157 1274 888 1006 1157 b 74 557 342 1157 74 888 b 674 -46 74 225 342 -46 b 1274 557 1006 -46 1274 225 z "},"−":{"ha":986,"x_min":0,"x_max":0,"o":"m 861 664 l 125 664 l 125 463 l 861 463 z "},"ð":{"ha":963,"x_min":0,"x_max":0,"o":"m 681 403 b 476 185 681 265 614 185 b 271 403 339 185 271 267 b 475 639 271 543 338 639 b 681 403 613 639 681 542 z m 893 411 b 807 724 893 538 861 640 l 631 990 l 618 1000 l 719 1053 l 635 1183 l 533 1133 l 528 1147 l 508 1175 l 261 1175 l 335 1061 l 346 1050 l 236 994 l 318 863 l 435 918 l 439 904 l 496 821 b 433 825 471 825 453 825 b 353 814 408 824 379 819 b 60 411 163 772 60 608 b 475 -14 60 172 201 -14 b 893 411 749 -14 893 174 z "},"×":{"ha":924,"x_min":0,"x_max":0,"o":"m 593 563 l 819 783 l 682 919 l 461 694 l 242 919 l 104 783 l 331 563 l 104 342 l 242 206 l 463 431 l 682 206 l 819 342 z "},"³":{"ha":696,"x_min":0,"x_max":0,"o":"m 619 696 b 539 835 619 760 586 806 b 538 836 539 835 538 836 b 608 957 576 863 608 915 b 353 1139 608 1060 521 1139 b 82 1021 246 1139 169 1108 l 188 922 b 351 996 240 982 285 996 b 450 957 438 996 450 971 b 360 899 450 944 442 907 b 246 894 340 897 246 894 l 246 764 b 364 761 246 764 339 763 b 463 693 444 754 463 721 b 350 636 463 679 444 636 b 185 718 282 636 240 656 l 76 615 b 350 493 146 538 232 493 b 619 696 503 493 619 579 z "},"©":{"ha":1347,"x_min":0,"x_max":0,"o":"m 849 408 b 669 324 789 344 738 324 b 472 550 529 324 472 421 b 671 789 472 685 539 788 b 842 713 739 789 792 767 l 946 821 b 671 935 872 900 786 935 b 322 550 447 935 322 765 b 669 176 322 342 433 176 b 954 303 778 176 869 211 z m 1131 557 b 674 88 1131 306 925 88 b 217 557 422 88 217 306 b 674 1025 217 807 424 1025 b 1131 557 924 1025 1131 807 z m 1274 557 b 674 1157 1274 888 1006 1157 b 74 557 342 1157 74 888 b 674 -46 74 225 342 -46 b 1274 557 1006 -46 1274 225 z "},"Á":{"ha":1332,"x_min":0,"x_max":0,"o":"m 490 465 l 514 488 l 631 732 l 665 833 l 668 835 l 703 732 l 819 488 l 843 465 z m 771 1125 l 563 1125 l 21 0 l 281 0 l 397 247 l 383 268 l 949 268 l 935 247 l 1053 0 l 1311 0 z m 725 1606 l 467 1304 l 557 1213 l 858 1471 z "},"Â":{"ha":1332,"x_min":0,"x_max":0,"o":"m 490 465 l 514 488 l 631 732 l 665 833 l 668 835 l 703 732 l 819 488 l 843 465 z m 771 1125 l 563 1125 l 21 0 l 281 0 l 397 247 l 383 268 l 949 268 l 935 247 l 1053 0 l 1311 0 z m 669 1576 l 667 1576 l 386 1299 l 474 1211 l 667 1369 l 860 1211 l 947 1299 z "},"Ä":{"ha":1332,"x_min":0,"x_max":0,"o":"m 490 465 l 514 488 l 631 732 l 665 833 l 668 835 l 703 732 l 819 488 l 843 465 z m 771 1125 l 563 1125 l 21 0 l 281 0 l 397 247 l 383 268 l 949 268 l 935 247 l 1053 0 l 1311 0 z m 596 1364 b 490 1478 596 1431 560 1478 b 386 1364 422 1478 386 1429 b 490 1250 386 1297 421 1250 b 596 1364 558 1250 596 1297 z m 947 1364 b 842 1478 947 1431 911 1478 b 738 1364 774 1478 738 1429 b 842 1250 738 1297 772 1250 b 947 1364 910 1250 947 1297 z "},"À":{"ha":1332,"x_min":0,"x_max":0,"o":"m 490 465 l 514 488 l 631 732 l 665 833 l 668 835 l 703 732 l 819 488 l 843 465 z m 771 1125 l 563 1125 l 21 0 l 281 0 l 397 247 l 383 268 l 949 268 l 935 247 l 1053 0 l 1311 0 z m 617 1604 l 483 1471 l 785 1213 l 875 1303 z "},"Å":{"ha":1332,"x_min":0,"x_max":0,"o":"m 490 465 l 514 488 l 631 732 l 665 833 l 668 835 l 703 732 l 819 488 l 843 465 z m 725 1389 b 667 1326 725 1351 707 1326 b 610 1389 628 1326 610 1351 b 667 1453 610 1428 628 1453 b 725 1389 706 1453 725 1428 z m 771 1125 l 563 1125 l 21 0 l 281 0 l 397 247 l 383 268 l 949 268 l 935 247 l 1053 0 l 1311 0 z m 836 1389 b 667 1564 836 1489 779 1564 b 497 1389 554 1564 497 1488 b 667 1215 497 1292 554 1215 b 836 1389 779 1215 836 1292 z "},"Ã":{"ha":1332,"x_min":0,"x_max":0,"o":"m 490 465 l 514 488 l 631 732 l 665 833 l 668 835 l 703 732 l 819 488 l 843 465 z m 771 1125 l 563 1125 l 21 0 l 281 0 l 397 247 l 383 268 l 949 268 l 935 247 l 1053 0 l 1311 0 z m 919 1481 b 807 1372 896 1392 850 1372 b 753 1386 792 1372 772 1378 b 692 1421 732 1396 713 1408 b 539 1474 649 1446 592 1474 b 328 1301 436 1474 354 1392 l 421 1208 b 531 1315 447 1297 494 1315 b 588 1301 547 1315 568 1310 b 649 1268 610 1293 628 1281 b 799 1215 692 1242 747 1215 b 1014 1386 894 1215 981 1281 z "},"Ç":{"ha":1194,"x_min":0,"x_max":0,"o":"m 993 344 b 679 196 919 249 814 196 b 317 556 418 196 317 349 b 681 928 317 769 425 928 b 989 778 815 928 917 876 l 1151 940 b 681 1138 1033 1074 882 1138 b 76 556 292 1138 76 892 b 569 -8 76 251 246 32 l 622 -61 b 615 -126 638 -76 646 -96 l 514 -228 l 613 -326 l 749 -189 b 749 -35 799 -139 796 -79 l 725 -12 b 1153 186 899 -3 1043 67 z "},"É":{"ha":1153,"x_min":0,"x_max":0,"o":"m 1056 211 l 339 211 l 361 233 l 361 435 l 339 457 l 989 457 l 989 668 l 339 668 l 361 690 l 361 892 l 339 914 l 1056 914 l 1056 1125 l 125 1125 l 125 0 l 1056 0 z m 696 1606 l 438 1304 l 528 1214 l 829 1472 z "},"Ê":{"ha":1153,"x_min":0,"x_max":0,"o":"m 1056 211 l 339 211 l 361 233 l 361 435 l 339 457 l 989 457 l 989 668 l 339 668 l 361 690 l 361 892 l 339 914 l 1056 914 l 1056 1125 l 125 1125 l 125 0 l 1056 0 z m 604 1576 l 601 1576 l 321 1299 l 408 1211 l 601 1369 l 794 1211 l 882 1299 z "},"Ë":{"ha":1153,"x_min":0,"x_max":0,"o":"m 1056 211 l 339 211 l 361 233 l 361 435 l 339 457 l 989 457 l 989 668 l 339 668 l 361 690 l 361 892 l 339 914 l 1056 914 l 1056 1125 l 125 1125 l 125 0 l 1056 0 z m 529 1364 b 424 1478 529 1431 493 1478 b 319 1364 356 1478 319 1431 b 424 1251 319 1299 354 1251 b 529 1364 492 1251 529 1299 z m 881 1364 b 775 1478 881 1431 844 1478 b 671 1364 707 1478 671 1431 b 775 1251 671 1299 706 1251 b 881 1364 843 1251 881 1299 z "},"È":{"ha":1153,"x_min":0,"x_max":0,"o":"m 1056 211 l 339 211 l 361 233 l 361 435 l 339 457 l 989 457 l 989 668 l 339 668 l 361 690 l 361 892 l 339 914 l 1056 914 l 1056 1125 l 125 1125 l 125 0 l 1056 0 z m 511 1607 l 378 1474 l 679 1215 l 769 1306 z "},"Í":{"ha":500,"x_min":0,"x_max":0,"o":"m 368 1125 l 132 1125 l 132 0 l 368 0 z m 328 1606 l 69 1304 l 161 1213 l 463 1471 z "},"Î":{"ha":500,"x_min":0,"x_max":0,"o":"m 368 1125 l 132 1125 l 132 0 l 368 0 z m 251 1576 l 249 1576 l -32 1299 l 56 1211 l 249 1369 l 443 1211 l 529 1299 z "},"Ï":{"ha":500,"x_min":0,"x_max":0,"o":"m 368 1125 l 132 1125 l 132 0 l 368 0 z m 181 1363 b 75 1476 181 1429 144 1476 b -29 1363 7 1476 -29 1429 b 76 1250 -29 1297 7 1250 b 181 1363 143 1250 181 1297 z m 532 1363 b 426 1476 532 1429 496 1476 b 322 1363 358 1476 322 1429 b 428 1250 322 1297 358 1250 b 532 1363 494 1250 532 1297 z "},"Ì":{"ha":500,"x_min":0,"x_max":0,"o":"m 368 1125 l 132 1125 l 132 0 l 368 0 z m 160 1607 l 26 1474 l 328 1215 l 418 1306 z "},"Ñ":{"ha":1278,"x_min":0,"x_max":0,"o":"m 1153 1125 l 917 1125 l 917 378 l 914 378 l 836 506 l 324 1125 l 125 1125 l 125 0 l 361 0 l 361 751 l 364 751 l 447 619 l 954 0 l 1153 0 z m 885 1481 b 771 1374 861 1392 814 1374 b 718 1388 757 1374 738 1379 b 656 1421 696 1397 678 1408 b 504 1475 614 1447 557 1475 b 293 1303 401 1475 318 1393 l 385 1210 b 496 1317 413 1297 460 1317 b 553 1303 511 1317 532 1311 b 614 1269 574 1293 593 1282 b 764 1217 657 1243 713 1217 b 978 1386 860 1217 946 1281 z "},"Ó":{"ha":1311,"x_min":0,"x_max":0,"o":"m 994 556 b 656 197 994 346 897 197 b 317 556 417 197 317 346 b 656 928 317 772 417 928 b 994 556 897 928 994 767 z m 1235 556 b 656 1139 1235 890 1038 1139 b 76 556 276 1139 76 890 b 656 -14 76 221 276 -14 b 1235 556 1029 -14 1235 221 z m 740 1606 l 482 1304 l 572 1214 l 874 1472 z "},"Ô":{"ha":1311,"x_min":0,"x_max":0,"o":"m 994 556 b 656 197 994 346 897 197 b 317 556 417 197 317 346 b 656 928 317 772 417 928 b 994 556 897 928 994 767 z m 1235 556 b 656 1139 1235 890 1038 1139 b 76 556 276 1139 76 890 b 656 -14 76 221 276 -14 b 1235 556 1029 -14 1235 221 z m 658 1576 l 656 1576 l 375 1299 l 463 1211 l 656 1369 l 850 1211 l 936 1299 z "},"Ö":{"ha":1311,"x_min":0,"x_max":0,"o":"m 994 556 b 656 197 994 346 897 197 b 317 556 417 197 317 346 b 656 928 317 772 417 928 b 994 556 897 928 994 767 z m 1235 556 b 656 1139 1235 890 1038 1139 b 76 556 276 1139 76 890 b 656 -14 76 221 276 -14 b 1235 556 1029 -14 1235 221 z m 585 1364 b 479 1478 585 1431 549 1478 b 375 1364 411 1478 375 1429 b 479 1250 375 1297 410 1250 b 585 1364 547 1250 585 1297 z m 936 1364 b 831 1478 936 1431 900 1478 b 726 1364 763 1478 726 1429 b 831 1250 726 1297 761 1250 b 936 1364 899 1250 936 1297 z "},"Ò":{"ha":1311,"x_min":0,"x_max":0,"o":"m 994 556 b 656 197 994 346 897 197 b 317 556 417 197 317 346 b 656 928 317 772 417 928 b 994 556 897 928 994 767 z m 1235 556 b 656 1139 1235 890 1038 1139 b 76 556 276 1139 76 890 b 656 -14 76 221 276 -14 b 1235 556 1029 -14 1235 221 z m 571 1607 l 436 1474 l 738 1215 l 828 1306 z "},"Õ":{"ha":1311,"x_min":0,"x_max":0,"o":"m 994 556 b 656 197 994 346 897 197 b 317 556 417 197 317 346 b 656 928 317 772 417 928 b 994 556 897 928 994 767 z m 1235 556 b 656 1139 1235 890 1038 1139 b 76 556 276 1139 76 890 b 656 -14 76 221 276 -14 b 1235 556 1029 -14 1235 221 z m 896 1481 b 782 1372 872 1392 825 1372 b 729 1386 768 1372 749 1378 b 667 1421 707 1396 689 1408 b 515 1474 625 1446 568 1474 b 304 1301 413 1474 329 1392 l 396 1208 b 507 1315 424 1297 471 1315 b 564 1301 522 1315 543 1310 b 625 1268 585 1293 604 1281 b 775 1215 668 1242 724 1215 b 989 1386 871 1215 957 1281 z "},"Š":{"ha":1174,"x_min":0,"x_max":0,"o":"m 1104 321 b 753 650 1104 471 988 593 b 571 696 726 656 596 689 b 338 818 389 742 338 771 b 588 929 338 871 404 929 b 915 782 718 929 838 871 l 1081 946 b 590 1139 958 1071 792 1139 b 97 813 268 1139 97 992 b 476 496 97 622 276 547 b 685 444 503 489 660 450 b 864 317 832 408 864 353 b 613 196 864 254 797 196 b 233 349 482 196 349 244 l 69 185 b 604 -14 211 49 404 -14 b 1104 321 951 -14 1104 147 z m 781 1581 l 588 1422 l 394 1579 l 307 1493 l 585 1215 l 588 1215 l 868 1493 z "},"Ú":{"ha":1294,"x_min":0,"x_max":0,"o":"m 1176 1125 l 940 1125 l 940 519 b 647 197 940 307 860 197 b 354 519 432 197 354 307 l 354 1125 l 118 1125 l 118 518 b 649 -14 118 179 289 -14 b 1176 518 1007 -14 1176 182 z m 718 1606 l 460 1304 l 550 1213 l 851 1471 z "},"Û":{"ha":1294,"x_min":0,"x_max":0,"o":"m 1176 1125 l 940 1125 l 940 519 b 647 197 940 307 860 197 b 354 519 432 197 354 307 l 354 1125 l 118 1125 l 118 518 b 649 -14 118 179 289 -14 b 1176 518 1007 -14 1176 182 z m 644 1576 l 642 1576 l 364 1299 l 451 1211 l 644 1369 l 838 1211 l 925 1299 z "},"Ü":{"ha":1294,"x_min":0,"x_max":0,"o":"m 1176 1125 l 940 1125 l 940 519 b 647 197 940 307 860 197 b 354 519 432 197 354 307 l 354 1125 l 118 1125 l 118 518 b 649 -14 118 179 289 -14 b 1176 518 1007 -14 1176 182 z m 576 1364 b 471 1478 576 1431 540 1478 b 367 1364 403 1478 367 1429 b 472 1250 367 1297 403 1250 b 576 1364 539 1250 576 1297 z m 928 1364 b 822 1478 928 1431 892 1478 b 718 1364 754 1478 718 1429 b 824 1250 718 1297 754 1250 b 928 1364 890 1250 928 1297 z "},"Ù":{"ha":1294,"x_min":0,"x_max":0,"o":"m 1176 1125 l 940 1125 l 940 519 b 647 197 940 307 860 197 b 354 519 432 197 354 307 l 354 1125 l 118 1125 l 118 518 b 649 -14 118 179 289 -14 b 1176 518 1007 -14 1176 182 z m 563 1607 l 428 1474 l 729 1215 l 819 1306 z "},"Ý":{"ha":1303,"x_min":0,"x_max":0,"o":"m 988 1125 l 714 765 l 653 658 l 650 658 l 588 765 l 317 1125 l 21 1125 l 533 464 l 533 0 l 771 0 l 771 464 l 1282 1125 z m 738 1604 l 479 1303 l 571 1213 l 871 1471 z "},"Ÿ":{"ha":1289,"x_min":0,"x_max":0,"o":"m 974 1125 l 711 771 l 646 660 l 643 660 l 578 771 l 317 1125 l 21 1125 l 526 464 l 526 0 l 764 0 l 764 464 l 1268 1125 z m 568 1364 b 463 1478 568 1431 532 1478 b 358 1364 394 1478 358 1429 b 464 1250 358 1297 394 1250 b 568 1364 531 1250 568 1297 z m 919 1364 b 814 1478 919 1431 883 1478 b 710 1364 746 1478 710 1429 b 815 1250 710 1297 746 1250 b 919 1364 882 1250 919 1297 z "},"Ž":{"ha":1194,"x_min":0,"x_max":0,"o":"m 1111 211 l 417 211 l 415 213 l 519 308 l 1104 960 l 1104 1125 l 97 1125 l 97 914 l 781 914 l 779 913 l 675 822 l 83 167 l 83 0 l 1111 0 z m 800 1582 l 607 1425 l 414 1582 l 326 1496 l 604 1217 l 607 1217 l 888 1496 z "},"á":{"ha":1053,"x_min":0,"x_max":0,"o":"m 713 357 l 713 274 b 474 178 713 186 544 178 b 300 269 383 178 300 206 b 424 363 300 314 336 344 b 561 378 467 372 515 376 b 682 381 608 381 644 381 b 735 379 688 381 726 381 z m 944 543 b 535 888 944 783 771 888 b 132 767 386 888 251 851 l 275 622 b 532 696 354 675 444 696 b 708 585 636 696 703 658 l 732 563 b 654 564 724 564 661 564 b 69 272 432 564 69 538 b 465 -15 69 47 293 -15 b 710 49 554 -15 644 6 l 713 49 l 713 -1 l 944 -1 l 944 543 z m 615 1357 l 357 1057 l 447 965 l 749 1224 z "},"â":{"ha":1053,"x_min":0,"x_max":0,"o":"m 713 357 l 713 274 b 474 178 713 186 544 178 b 300 269 383 178 300 206 b 424 363 300 314 336 344 b 561 378 467 372 515 376 b 682 381 608 381 644 381 b 735 379 688 381 726 381 z m 944 543 b 535 888 944 783 771 888 b 132 767 386 888 251 851 l 275 622 b 532 696 354 675 444 696 b 708 585 636 696 703 658 l 732 563 b 654 564 724 564 661 564 b 69 272 432 564 69 538 b 465 -15 69 47 293 -15 b 710 49 554 -15 644 6 l 713 49 l 713 -1 l 944 -1 l 944 543 z m 510 1332 l 507 1332 l 226 1054 l 314 967 l 507 1125 l 701 967 l 789 1054 z "},"ä":{"ha":1053,"x_min":0,"x_max":0,"o":"m 713 357 l 713 274 b 474 178 713 186 544 178 b 300 269 383 178 300 206 b 424 363 300 314 336 344 b 561 378 467 372 515 376 b 682 381 608 381 644 381 b 735 379 688 381 726 381 z m 944 543 b 535 888 944 783 771 888 b 132 767 386 888 251 851 l 275 622 b 532 696 354 675 444 696 b 708 585 636 696 703 658 l 732 563 b 654 564 724 564 661 564 b 69 272 432 564 69 538 b 465 -15 69 47 293 -15 b 710 49 554 -15 644 6 l 713 49 l 713 -1 l 944 -1 l 944 543 z m 438 1096 b 332 1210 438 1163 401 1210 b 228 1096 264 1210 228 1163 b 332 982 228 1031 263 982 b 438 1096 400 982 438 1031 z m 789 1096 b 683 1210 789 1163 753 1210 b 579 1096 615 1210 579 1163 b 683 982 579 1031 614 982 b 789 1096 751 982 789 1031 z "},"à":{"ha":1053,"x_min":0,"x_max":0,"o":"m 713 357 l 713 274 b 474 178 713 186 544 178 b 300 269 383 178 300 206 b 424 363 300 314 336 344 b 561 378 467 372 515 376 b 682 381 608 381 644 381 b 735 379 688 381 726 381 z m 944 543 b 535 888 944 783 771 888 b 132 767 386 888 251 851 l 275 622 b 532 696 354 675 444 696 b 708 585 636 696 703 658 l 732 563 b 654 564 724 564 661 564 b 69 272 432 564 69 538 b 465 -15 69 47 293 -15 b 710 49 554 -15 644 6 l 713 49 l 713 -1 l 944 -1 l 944 543 z m 451 1357 l 318 1224 l 618 965 l 710 1057 z "},"å":{"ha":1053,"x_min":0,"x_max":0,"o":"m 713 357 l 713 274 b 474 178 713 186 544 178 b 300 269 383 178 300 206 b 424 363 300 314 336 344 b 561 378 467 372 515 376 b 682 381 608 381 644 381 b 735 379 688 381 726 381 z m 589 1139 b 532 1076 589 1100 571 1076 b 474 1139 493 1076 474 1101 b 532 1203 474 1178 492 1203 b 589 1139 571 1203 589 1178 z m 944 543 b 535 888 944 783 771 888 b 132 767 386 888 251 851 l 275 622 b 532 696 354 675 444 696 b 708 585 636 696 703 658 l 732 563 b 654 564 724 564 661 564 b 69 272 432 564 69 538 b 465 -15 69 47 293 -15 b 710 49 554 -15 644 6 l 713 49 l 713 -1 l 944 -1 l 944 543 z m 700 1139 b 531 1313 700 1238 644 1313 b 363 1139 418 1313 363 1238 b 532 965 363 1040 418 965 b 700 1139 643 965 700 1042 z "},"ã":{"ha":1053,"x_min":0,"x_max":0,"o":"m 713 357 l 713 274 b 474 178 713 186 544 178 b 300 269 383 178 300 206 b 424 363 300 314 336 344 b 561 378 467 372 515 376 b 682 381 608 381 644 381 b 735 379 688 381 726 381 z m 944 543 b 535 888 944 783 771 888 b 132 767 386 888 251 851 l 275 622 b 532 696 354 675 444 696 b 708 585 636 696 703 658 l 732 563 b 654 564 724 564 661 564 b 69 272 432 564 69 538 b 465 -15 69 47 293 -15 b 710 49 554 -15 644 6 l 713 49 l 713 -1 l 944 -1 l 944 543 z m 760 1254 b 647 1146 736 1165 690 1146 b 593 1160 632 1146 613 1151 b 532 1194 572 1169 553 1181 b 379 1247 489 1219 432 1247 b 168 1075 276 1247 193 1165 l 261 982 b 371 1089 288 1071 335 1089 b 428 1075 388 1089 408 1083 b 489 1042 449 1067 468 1054 b 639 989 532 1015 588 989 b 854 1160 735 989 821 1054 z "},"ç":{"ha":943,"x_min":0,"x_max":0,"o":"m 754 279 b 539 185 689 215 625 185 b 301 431 371 185 301 290 b 542 689 301 578 383 689 b 749 599 628 689 690 660 l 901 751 b 540 889 815 838 699 889 b 69 432 239 889 69 685 b 432 -6 69 213 188 33 l 485 -60 b 476 -126 500 -74 507 -96 l 375 -228 l 474 -326 l 610 -189 b 610 -35 660 -139 657 -79 l 586 -12 b 906 128 710 -3 821 47 z "},"é":{"ha":1069,"x_min":0,"x_max":0,"o":"m 299 533 l 319 556 b 538 699 356 644 424 699 b 751 556 649 699 719 647 l 774 533 z m 1000 431 b 538 889 1000 686 849 889 b 69 431 240 889 69 693 b 550 -14 69 182 226 -14 b 918 119 696 -14 814 29 l 778 261 b 550 178 708 204 638 178 b 317 325 431 178 350 236 l 296 347 l 994 347 b 1000 431 999 375 1000 408 z m 614 1357 l 356 1057 l 446 965 l 747 1224 z "},"ê":{"ha":1069,"x_min":0,"x_max":0,"o":"m 299 533 l 319 556 b 538 699 356 644 424 699 b 751 556 649 699 719 647 l 774 533 z m 1000 431 b 538 889 1000 686 849 889 b 69 431 240 889 69 693 b 550 -14 69 182 226 -14 b 918 119 696 -14 814 29 l 778 261 b 550 178 708 204 638 178 b 317 325 431 178 350 236 l 296 347 l 994 347 b 1000 431 999 375 1000 408 z m 538 1332 l 535 1332 l 254 1054 l 342 967 l 535 1125 l 729 967 l 817 1054 z "},"ë":{"ha":1069,"x_min":0,"x_max":0,"o":"m 299 533 l 319 556 b 538 699 356 644 424 699 b 751 556 649 699 719 647 l 774 533 z m 1000 431 b 538 889 1000 686 849 889 b 69 431 240 889 69 693 b 550 -14 69 182 226 -14 b 918 119 696 -14 814 29 l 778 261 b 550 178 708 204 638 178 b 317 325 431 178 350 236 l 296 347 l 994 347 b 1000 431 999 375 1000 408 z m 460 1096 b 356 1210 460 1163 424 1210 b 250 1096 286 1210 250 1163 b 356 982 250 1031 286 982 b 460 1096 422 982 460 1031 z m 811 1096 b 707 1210 811 1163 775 1210 b 601 1096 638 1210 601 1163 b 707 982 601 1031 638 982 b 811 1096 774 982 811 1031 z "},"è":{"ha":1069,"x_min":0,"x_max":0,"o":"m 299 533 l 319 556 b 538 699 356 644 424 699 b 751 556 649 699 719 647 l 774 533 z m 1000 431 b 538 889 1000 686 849 889 b 69 431 240 889 69 693 b 550 -14 69 182 226 -14 b 918 119 696 -14 814 29 l 778 261 b 550 178 708 204 638 178 b 317 325 431 178 350 236 l 296 347 l 994 347 b 1000 431 999 375 1000 408 z m 446 1357 l 313 1224 l 613 965 l 704 1057 z "},"í":{"ha":461,"x_min":0,"x_max":0,"o":"m 347 875 l 115 875 l 115 0 l 347 0 z m 299 1357 l 40 1057 l 131 965 l 432 1224 z "},"î":{"ha":461,"x_min":0,"x_max":0,"o":"m 347 875 l 115 875 l 115 0 l 347 0 z m 233 1332 l 231 1332 l -50 1054 l 38 967 l 231 1125 l 425 967 l 513 1054 z "},"ï":{"ha":461,"x_min":0,"x_max":0,"o":"m 347 875 l 115 875 l 115 0 l 347 0 z m 160 1096 b 54 1210 160 1163 124 1210 b -50 1096 -14 1210 -50 1163 b 54 982 -50 1031 -15 982 b 160 1096 122 982 160 1031 z m 511 1096 b 406 1210 511 1163 475 1210 b 301 1096 338 1210 301 1163 b 406 982 301 1031 336 982 b 511 1096 474 982 511 1031 z "},"ì":{"ha":461,"x_min":0,"x_max":0,"o":"m 347 875 l 115 875 l 115 0 l 347 0 z m 147 1357 l 14 1224 l 314 965 l 406 1057 z "},"ñ":{"ha":1094,"x_min":0,"x_max":0,"o":"m 988 543 b 603 889 988 761 835 889 b 350 800 506 889 410 854 l 347 800 l 347 876 l 115 876 l 115 0 l 347 0 l 347 511 b 563 689 347 626 435 689 b 756 521 729 689 756 626 l 756 0 l 986 0 l 988 543 z m 797 1254 b 683 1146 774 1165 726 1146 b 631 1160 669 1146 650 1151 b 568 1194 608 1169 589 1181 b 417 1247 526 1219 468 1247 b 204 1075 314 1247 231 1165 l 297 982 b 408 1089 325 1071 372 1089 b 464 1075 424 1089 444 1083 b 525 1042 486 1067 506 1054 b 675 989 569 1015 624 989 b 890 1160 772 989 857 1054 z "},"ó":{"ha":1069,"x_min":0,"x_max":0,"o":"m 768 438 b 535 185 768 288 697 185 b 301 438 374 185 301 288 b 535 689 301 589 371 689 b 768 438 697 689 768 588 z m 1000 438 b 533 889 1000 693 846 889 b 69 438 224 889 69 692 b 535 -14 69 183 224 -14 b 1000 438 843 -14 1000 185 z m 615 1357 l 358 1057 l 449 965 l 750 1224 z "},"ô":{"ha":1069,"x_min":0,"x_max":0,"o":"m 768 438 b 535 185 768 288 697 185 b 301 438 374 185 301 288 b 535 689 301 589 371 689 b 768 438 697 689 768 588 z m 1000 438 b 533 889 1000 693 846 889 b 69 438 224 889 69 692 b 535 -14 69 183 224 -14 b 1000 438 843 -14 1000 185 z m 535 1332 l 532 1332 l 251 1054 l 339 967 l 532 1125 l 725 967 l 813 1054 z "},"ö":{"ha":1069,"x_min":0,"x_max":0,"o":"m 768 438 b 535 185 768 288 697 185 b 301 438 374 185 301 288 b 535 689 301 589 371 689 b 768 438 697 689 768 588 z m 1000 438 b 533 889 1000 693 846 889 b 69 438 224 889 69 692 b 535 -14 69 183 224 -14 b 1000 438 843 -14 1000 185 z m 464 1096 b 358 1210 464 1161 428 1210 b 254 1096 290 1210 254 1161 b 358 982 254 1029 289 982 b 464 1096 426 982 464 1029 z m 815 1096 b 710 1210 815 1161 779 1210 b 606 1096 642 1210 606 1161 b 710 982 606 1029 640 982 b 815 1096 778 982 815 1029 z "},"ò":{"ha":1069,"x_min":0,"x_max":0,"o":"m 768 438 b 535 185 768 288 697 185 b 301 438 374 185 301 288 b 535 689 301 589 371 689 b 768 438 697 689 768 588 z m 1000 438 b 533 889 1000 693 846 889 b 69 438 224 889 69 692 b 535 -14 69 183 224 -14 b 1000 438 843 -14 1000 185 z m 435 1357 l 301 1224 l 603 965 l 693 1057 z "},"õ":{"ha":1069,"x_min":0,"x_max":0,"o":"m 768 438 b 535 185 768 288 697 185 b 301 438 374 185 301 288 b 535 689 301 589 371 689 b 768 438 697 689 768 588 z m 1000 438 b 533 889 1000 693 846 889 b 69 438 224 889 69 692 b 535 -14 69 183 224 -14 b 1000 438 843 -14 1000 185 z m 774 1254 b 660 1146 750 1165 703 1146 b 607 1160 646 1146 626 1151 b 544 1194 585 1169 565 1181 b 393 1247 503 1219 444 1247 b 181 1075 290 1247 207 1165 l 274 982 b 385 1089 301 1071 349 1089 b 440 1075 400 1089 421 1083 b 501 1042 463 1067 482 1054 b 651 989 546 1015 600 989 b 867 1160 749 989 833 1054 z "},"š":{"ha":974,"x_min":0,"x_max":0,"o":"m 904 261 b 624 514 904 393 808 468 b 483 551 604 519 501 547 b 329 628 376 578 329 592 b 490 697 329 653 360 697 b 738 599 585 697 675 660 l 882 742 b 489 888 782 839 653 888 b 96 625 240 888 96 776 b 400 367 96 465 250 404 b 557 326 419 363 538 331 b 671 251 658 301 671 279 b 499 178 671 219 632 178 b 218 300 399 178 292 222 l 69 150 b 503 -15 199 39 343 -15 b 904 261 774 -15 904 113 z m 690 1331 l 497 1174 l 303 1331 l 217 1244 l 494 965 l 497 965 l 778 1244 z "},"ú":{"ha":1083,"x_min":0,"x_max":0,"o":"m 969 875 l 738 875 l 738 364 b 526 186 738 249 653 186 b 340 354 385 186 340 249 l 340 875 l 108 875 l 108 342 b 492 -14 107 126 226 -14 b 735 75 588 -14 678 18 l 738 75 l 738 -1 l 969 -1 z m 625 1357 l 367 1057 l 457 965 l 758 1224 z "},"û":{"ha":1083,"x_min":0,"x_max":0,"o":"m 969 875 l 738 875 l 738 364 b 526 186 738 249 653 186 b 340 354 385 186 340 249 l 340 875 l 108 875 l 108 342 b 492 -14 107 126 226 -14 b 735 75 588 -14 678 18 l 738 75 l 738 -1 l 969 -1 z m 536 1332 l 533 1332 l 253 1054 l 340 967 l 533 1125 l 728 967 l 815 1054 z "},"ü":{"ha":1083,"x_min":0,"x_max":0,"o":"m 969 875 l 738 875 l 738 364 b 526 186 738 249 653 186 b 340 354 385 186 340 249 l 340 875 l 108 875 l 108 342 b 492 -14 107 126 226 -14 b 735 75 588 -14 678 18 l 738 75 l 738 -1 l 969 -1 z m 467 1096 b 363 1210 467 1163 431 1210 b 257 1096 293 1210 257 1163 b 363 982 257 1031 293 982 b 467 1096 429 982 467 1031 z m 818 1096 b 714 1210 818 1163 782 1210 b 608 1096 644 1210 608 1163 b 714 982 608 1031 644 982 b 818 1096 781 982 818 1031 z "},"ù":{"ha":1083,"x_min":0,"x_max":0,"o":"m 969 875 l 738 875 l 738 364 b 526 186 738 249 653 186 b 340 354 385 186 340 249 l 340 875 l 108 875 l 108 342 b 492 -14 107 126 226 -14 b 735 75 588 -14 678 18 l 738 75 l 738 -1 l 969 -1 z m 442 1357 l 308 1224 l 610 965 l 700 1057 z "},"ý":{"ha":1071,"x_min":0,"x_max":0,"o":"m 797 875 l 589 372 l 551 254 l 549 254 l 508 372 l 275 875 l 19 875 l 435 11 b 304 -100 394 -85 351 -100 b 111 -37 257 -100 201 -85 l 111 -247 b 328 -299 190 -286 254 -299 b 629 -82 465 -299 572 -208 l 1053 875 z m 613 1357 l 356 1057 l 446 965 l 747 1224 z "},"ÿ":{"ha":1071,"x_min":0,"x_max":0,"o":"m 797 875 l 590 388 l 551 257 l 549 257 l 504 388 l 275 875 l 19 875 l 435 19 b 304 -100 394 -76 351 -100 b 111 -37 257 -100 201 -85 l 111 -247 b 326 -299 190 -286 253 -299 b 628 -82 464 -299 571 -208 l 1053 875 z m 457 1096 b 353 1210 457 1163 421 1210 b 247 1096 283 1210 247 1163 b 353 982 247 1031 283 982 b 457 1096 419 982 457 1031 z m 808 1096 b 704 1210 808 1163 772 1210 b 599 1096 635 1210 599 1163 b 704 982 599 1031 635 982 b 808 1096 771 982 808 1031 z "},"ž":{"ha":989,"x_min":0,"x_max":0,"o":"m 913 201 l 388 201 l 388 204 l 494 289 l 908 724 l 908 874 l 86 874 l 86 672 l 589 672 l 589 669 l 486 592 l 76 156 l 76 0 l 913 0 z m 701 1331 l 508 1174 l 314 1331 l 228 1244 l 506 965 l 508 965 l 789 1244 z "},"⅓":{"ha":1286,"x_min":0,"x_max":0,"o":"m 356 1125 l 219 1125 l 42 960 l 144 860 l 163 878 l 189 914 l 211 942 l 199 874 l 199 493 l 356 493 z m 658 1139 l 246 -14 l 413 -14 l 825 1139 z m 1210 189 b 1129 326 1210 251 1176 297 b 1128 328 1128 326 1128 328 b 1199 449 1167 356 1199 407 b 942 631 1199 551 1111 631 b 672 514 836 631 760 600 l 778 414 b 942 489 829 474 875 489 b 1040 449 1028 489 1040 463 b 949 390 1040 436 1032 399 b 835 388 931 389 835 388 l 835 256 b 953 253 835 256 929 256 b 1053 186 1035 246 1053 213 b 940 128 1053 171 1035 128 b 774 210 872 128 831 147 l 667 107 b 940 -15 736 29 822 -15 b 1210 189 1093 -15 1210 71 z "},"⅔":{"ha":1496,"x_min":0,"x_max":0,"o":"m 571 943 b 333 1132 571 1042 493 1132 b 76 1007 232 1132 153 1093 l 182 903 b 332 988 228 965 281 988 b 411 943 400 988 411 964 b 331 885 411 925 401 907 l 256 860 b 85 631 135 819 85 722 l 85 501 l 569 501 l 569 644 l 236 644 b 244 658 238 647 244 656 b 307 719 250 685 271 708 l 396 750 b 571 943 514 788 571 853 z m 868 1139 l 456 -14 l 621 -14 l 1033 1139 z m 1419 189 b 1338 326 1419 251 1385 297 b 1338 328 1338 326 1338 328 b 1407 449 1376 356 1407 407 b 1151 631 1407 551 1319 631 b 881 514 1044 631 969 600 l 986 414 b 1150 489 1039 474 1083 489 b 1250 449 1236 489 1250 463 b 1158 390 1250 436 1240 399 b 1044 388 1139 389 1044 388 l 1044 256 b 1163 253 1044 256 1139 256 b 1261 186 1243 246 1261 213 b 1150 128 1261 171 1244 128 b 983 210 1081 128 1039 147 l 875 107 b 1150 -15 944 29 1032 -15 b 1419 189 1303 -15 1419 71 z "},"\t":{"ha":1389,"x_min":0,"x_max":0,"o":""},"\n":{"ha":1389,"x_min":0,"x_max":0,"o":""},"\r":{"ha":1389,"x_min":0,"x_max":0,"o":""},"\u0010":{"ha":1389,"x_min":0,"x_max":0,"o":""},"\u0011":{"ha":1389,"x_min":0,"x_max":0,"o":""},"\u0012":{"ha":1389,"x_min":0,"x_max":0,"o":""},"\u0013":{"ha":1389,"x_min":0,"x_max":0,"o":""},"\u0014":{"ha":1389,"x_min":0,"x_max":0,"o":""},"\u001e":{"ha":1389,"x_min":0,"x_max":0,"o":""},"\u001f":{"ha":1389,"x_min":0,"x_max":0,"o":""},"":{"ha":1389,"x_min":0,"x_max":0,"o":""},"≠":{"ha":965,"x_min":0,"x_max":0,"o":"m 840 492 l 539 492 l 560 515 l 610 610 l 604 632 l 840 632 l 840 829 l 706 831 l 728 851 l 781 957 l 589 957 l 536 853 l 539 831 l 125 829 l 125 632 l 440 632 l 417 611 l 371 517 l 376 492 l 125 492 l 125 294 l 269 294 l 249 274 l 194 167 l 385 167 l 438 272 l 432 294 l 840 294 z "},"∞":{"ha":1215,"x_min":0,"x_max":0,"o":"m 513 567 b 358 451 478 515 419 451 b 249 567 297 451 249 506 b 358 682 249 629 294 682 b 513 567 413 682 469 622 z m 967 567 b 858 451 967 504 921 451 b 772 493 826 451 799 467 b 735 538 758 506 747 521 b 713 571 726 549 719 560 b 735 601 719 581 728 590 b 771 643 747 617 758 631 b 857 682 797 667 824 682 b 967 567 919 682 967 629 z m 1132 568 b 869 835 1132 718 1032 835 b 604 685 753 835 675 772 b 346 835 535 768 456 835 b 83 568 185 835 83 715 b 347 299 83 418 183 299 b 614 450 457 299 542 368 b 872 299 682 365 761 299 b 1132 568 1033 299 1132 421 z "},"≤":{"ha":767,"x_min":0,"x_max":0,"o":"m 624 208 l 90 208 l 90 7 l 624 7 z m 408 643 l 343 696 l 408 749 l 642 999 l 500 1144 l 76 685 l 500 254 l 642 400 z "},"≥":{"ha":767,"x_min":0,"x_max":0,"o":"m 675 208 l 143 208 l 143 7 l 675 7 z m 267 1144 l 125 999 l 358 749 l 422 696 l 358 643 l 125 400 l 265 254 l 690 685 z "},"∂":{"ha":928,"x_min":0,"x_max":0,"o":"m 633 411 b 460 186 633 275 581 186 b 285 411 339 186 285 276 b 458 635 285 547 336 635 b 633 411 581 635 633 546 z m 858 513 b 460 1174 858 800 826 1174 b 107 1021 326 1174 225 1129 l 250 876 b 460 974 319 944 390 974 b 650 774 551 974 615 904 b 458 832 594 811 524 832 b 69 411 197 832 69 646 b 458 -11 69 176 197 -11 b 858 513 753 -11 858 211 z "},"∑":{"ha":1072,"x_min":0,"x_max":0,"o":"m 994 -78 l 385 -78 l 469 6 l 836 443 l 479 838 l 394 913 l 979 913 l 979 1124 l 76 1124 l 76 944 b 543 446 76 944 464 525 l 76 -114 l 76 -292 l 996 -292 z "},"∏":{"ha":1188,"x_min":0,"x_max":0,"o":"m 1111 1124 l 76 1124 l 76 910 l 224 910 l 211 888 l 211 -293 l 435 -293 l 435 888 l 424 910 l 764 910 l 753 888 l 753 -293 l 975 -293 l 975 888 l 965 910 l 1111 910 z "},"π":{"ha":999,"x_min":0,"x_max":0,"o":"m 971 874 l 28 874 l 28 671 l 149 671 l 138 649 l 138 0 l 354 0 l 354 649 l 343 671 l 656 671 l 644 649 l 644 0 l 863 0 l 863 649 l 851 671 l 971 671 z "},"∫":{"ha":692,"x_min":0,"x_max":0,"o":"m 669 1247 b 519 1296 607 1283 564 1296 b 254 1029 343 1296 260 1185 b 251 910 253 990 251 967 l 251 108 b 249 -7 251 44 250 6 b 156 -94 242 -67 215 -94 b 68 -72 132 -94 113 -89 l 21 -242 b 172 -267 103 -261 140 -267 b 436 -53 347 -267 417 -169 b 444 142 442 -24 444 40 l 444 856 b 447 1036 444 982 446 1028 b 532 1117 454 1094 476 1117 b 622 1079 557 1117 582 1106 l 669 1247 z "},"Ω":{"ha":1267,"x_min":0,"x_max":0,"o":"m 1179 210 b 1040 204 1179 210 1089 210 b 1176 575 1138 310 1176 432 b 633 1138 1176 863 950 1138 b 86 574 317 1138 86 864 b 231 210 86 429 139 301 l 88 210 l 88 0 l 588 0 l 588 185 b 304 569 393 238 304 401 b 635 921 304 764 436 921 b 960 571 824 921 960 757 b 682 185 960 394 881 250 l 682 0 l 1179 0 z "},"√":{"ha":954,"x_min":0,"x_max":0,"o":"m 735 1276 b 460 210 735 1276 522 492 l 340 588 l 0 588 l 0 379 l 182 379 l 188 367 l 347 -126 l 575 -126 l 954 1276 z "},"≈":{"ha":979,"x_min":0,"x_max":0,"o":"m 765 558 b 642 433 746 488 707 433 b 581 450 624 433 603 440 b 510 489 558 460 535 475 b 340 549 458 518 400 549 b 89 360 217 549 122 472 l 210 238 b 332 363 229 307 268 363 b 393 346 351 363 371 356 b 465 308 417 336 440 322 b 633 247 517 279 574 247 b 888 435 754 247 851 319 z m 765 904 b 642 779 746 833 707 779 b 581 796 624 779 603 786 b 510 835 558 806 535 821 b 340 894 458 864 400 894 b 89 706 217 894 122 818 l 210 583 b 332 708 229 653 268 708 b 393 692 351 708 371 701 b 465 654 417 682 440 668 b 633 593 517 625 574 593 b 888 781 754 593 851 665 z "},"∆":{"ha":1375,"x_min":0,"x_max":0,"o":"m 392 211 l 411 231 l 647 736 l 685 836 l 721 736 l 965 233 l 986 211 z m 775 1125 l 588 1125 l 56 0 l 1319 0 z "}," ":{"ha":431,"x_min":0,"x_max":0,"o":""},"◊":{"ha":1118,"x_min":0,"x_max":0,"o":"m 560 274 l 333 563 l 560 853 l 786 563 z m 560 1192 l 74 563 l 560 -65 l 1044 563 z "},"€":{"ha":1049,"x_min":0,"x_max":0,"o":"m 979 953 b 608 1139 892 1079 774 1139 b 169 788 390 1139 236 1000 l 181 768 l 56 768 l 56 603 l 151 603 l 136 590 b 136 556 136 583 135 564 b 136 536 136 551 136 540 l 150 522 l 56 522 l 56 357 l 178 357 l 167 336 b 608 -14 226 128 382 -14 b 975 175 764 -14 882 43 l 826 326 b 608 193 775 235 701 193 b 401 336 514 193 443 250 l 374 357 l 725 357 l 725 522 l 342 522 l 356 536 b 356 556 356 540 356 551 b 356 590 356 564 356 583 l 343 603 l 725 603 l 725 768 l 379 768 l 407 789 b 614 932 450 875 519 932 b 831 801 706 932 782 890 l 979 953 z "},"":{"ha":1149,"x_min":0,"x_max":0,"o":"m 35 565 l 425 1125 l 0 1125 l 0 0 l 428 0 z m 1149 1125 l 894 1125 l 506 565 l 897 0 l 1149 0 z "},"℅":{"ha":1588,"x_min":0,"x_max":0,"o":"m 1342 308 b 1199 143 1342 206 1297 143 b 1057 308 1101 143 1057 206 b 1199 475 1057 414 1100 475 b 1342 308 1297 475 1342 413 z m 538 717 b 394 644 485 661 451 644 b 246 807 293 644 246 710 b 396 978 246 908 301 976 b 532 914 450 978 486 963 l 651 1031 b 390 1139 576 1108 499 1139 b 76 807 188 1139 76 989 b 389 482 76 628 176 482 b 658 600 494 482 572 513 z m 907 1138 l 503 -15 l 675 -15 l 1079 1138 z m 1511 308 b 1199 636 1511 492 1408 636 b 886 308 989 636 886 490 b 1199 -21 886 125 989 -21 b 1511 308 1407 -21 1511 126 z "},"№":{"ha":2082,"x_min":0,"x_max":0,"o":"m 1747 651 b 1568 432 1747 513 1701 432 b 1388 651 1435 432 1388 514 b 1567 869 1388 790 1432 869 b 1747 651 1701 869 1747 789 z m 1079 1125 l 847 1125 l 847 375 l 844 375 l 785 488 l 333 1125 l 125 1125 l 125 0 l 356 0 l 356 757 l 358 757 l 421 638 l 869 0 l 1079 0 z m 1906 178 l 1228 178 l 1228 0 l 1906 0 z m 1957 651 b 1567 1061 1957 881 1843 1061 b 1178 651 1292 1061 1178 878 b 1567 240 1178 424 1292 240 b 1957 651 1842 240 1957 424 z "},"Ć":{"ha":1194,"x_min":0,"x_max":0,"o":"m 993 344 b 679 196 919 249 814 196 b 317 556 418 196 317 349 b 681 928 317 769 425 928 b 989 778 815 928 917 876 l 1151 940 b 681 1138 1033 1074 882 1138 b 76 556 292 1138 76 892 b 679 -15 76 219 283 -15 b 1153 186 872 -15 1033 57 z m 747 1606 l 489 1304 l 579 1214 l 881 1472 z "},"ć":{"ha":943,"x_min":0,"x_max":0,"o":"m 754 279 b 539 188 689 215 625 188 b 301 431 371 188 301 290 b 542 688 301 578 383 686 b 749 599 628 688 690 660 l 901 751 b 540 889 815 838 699 889 b 69 432 239 889 69 685 b 538 -14 69 183 221 -14 b 906 128 682 -14 810 38 z m 601 1357 l 344 1057 l 435 965 l 736 1224 z "},"Ĺ":{"ha":1011,"x_min":0,"x_max":0,"o":"m 990 211 l 340 211 l 361 232 l 361 1125 l 125 1125 l 125 0 l 990 0 z m 354 1606 l 96 1304 l 188 1214 l 489 1472 z "},"ĺ":{"ha":461,"x_min":0,"x_max":0,"o":"m 347 1167 l 115 1167 l 115 0 l 347 0 z m 307 1619 l 49 1318 l 140 1228 l 442 1486 z "},"Ń":{"ha":1278,"x_min":0,"x_max":0,"o":"m 1153 1125 l 917 1125 l 917 378 l 914 378 l 836 506 l 324 1125 l 125 1125 l 125 0 l 361 0 l 361 751 l 364 751 l 447 619 l 954 0 l 1153 0 z m 711 1606 l 453 1304 l 543 1214 l 844 1472 z "},"ń":{"ha":1094,"x_min":0,"x_max":0,"o":"m 988 543 b 603 889 988 761 835 889 b 350 800 506 889 410 854 l 347 800 l 347 876 l 115 876 l 115 0 l 347 0 l 347 511 b 563 689 347 626 435 689 b 756 521 729 689 756 626 l 756 0 l 986 0 l 988 543 z m 628 1357 l 369 1057 l 460 965 l 761 1224 z "},"Ŕ":{"ha":1229,"x_min":0,"x_max":0,"o":"m 860 768 b 656 625 860 694 800 625 l 339 625 l 361 647 l 361 893 l 339 914 l 669 914 b 860 768 793 914 860 864 z m 1022 381 b 908 497 992 439 946 481 l 908 500 b 1100 774 1008 546 1100 654 b 669 1125 1100 1014 893 1125 l 125 1125 l 125 0 l 361 0 l 361 403 l 339 424 l 563 424 b 803 297 693 424 757 385 l 957 0 l 1222 0 z m 700 1606 l 442 1304 l 533 1214 l 835 1472 z "},"ŕ":{"ha":681,"x_min":0,"x_max":0,"o":"m 656 885 l 604 885 b 350 758 486 885 400 838 l 347 758 l 347 875 l 115 875 l 115 0 l 347 0 l 347 433 b 586 674 347 597 422 674 l 656 674 z m 444 1357 l 188 1056 l 278 965 l 579 1224 z "},"Ś":{"ha":1174,"x_min":0,"x_max":0,"o":"m 1104 321 b 753 650 1104 471 988 593 b 571 696 726 656 596 689 b 338 818 389 742 338 771 b 588 929 338 871 404 929 b 915 782 718 929 838 871 l 1081 946 b 590 1139 958 1071 792 1139 b 97 813 268 1139 97 992 b 476 496 97 622 276 547 b 685 444 503 489 660 450 b 864 317 832 408 864 353 b 613 196 864 254 797 196 b 233 349 482 196 349 244 l 69 185 b 604 -14 211 49 404 -14 b 1104 321 951 -14 1104 147 z m 668 1606 l 410 1304 l 500 1214 l 801 1472 z "},"ś":{"ha":974,"x_min":0,"x_max":0,"o":"m 904 261 b 624 514 904 393 808 468 b 483 551 604 519 501 547 b 329 628 376 578 329 592 b 490 697 329 653 360 697 b 738 599 585 697 675 660 l 882 742 b 489 888 782 839 653 888 b 96 625 240 888 96 776 b 400 367 96 465 250 404 b 557 326 419 363 538 331 b 671 251 658 301 671 279 b 499 178 671 219 632 178 b 218 300 399 178 292 222 l 69 150 b 503 -15 199 39 343 -15 b 904 261 774 -15 904 113 z m 575 1357 l 318 1057 l 408 965 l 710 1224 z "},"Ź":{"ha":1194,"x_min":0,"x_max":0,"o":"m 1111 211 l 417 211 l 417 214 l 518 307 l 1104 960 l 1104 1125 l 97 1125 l 97 914 l 779 914 l 779 911 l 669 817 l 83 167 l 83 0 l 1111 0 z m 697 1606 l 439 1304 l 529 1214 l 831 1472 z "},"ź":{"ha":989,"x_min":0,"x_max":0,"o":"m 913 201 l 389 201 l 388 203 l 494 289 l 908 724 l 908 874 l 86 874 l 86 672 l 589 672 l 588 671 l 486 592 l 76 156 l 76 0 l 913 0 z m 582 1357 l 325 1057 l 415 965 l 717 1224 z "},"Ẃ":{"ha":1582,"x_min":0,"x_max":0,"o":"m 1300 1125 l 1115 467 l 1093 350 l 1090 350 l 1067 467 l 881 1125 l 703 1125 l 517 467 l 494 347 l 492 347 l 468 467 l 285 1125 l 35 1125 l 363 0 l 608 0 l 763 547 l 786 672 l 789 672 l 813 547 l 967 0 l 1219 0 l 1547 1125 z m 868 1606 l 610 1304 l 701 1214 l 1003 1472 z "},"ẃ":{"ha":1343,"x_min":0,"x_max":0,"o":"m 1082 875 l 961 442 l 936 293 l 933 293 l 906 442 l 768 875 l 575 875 l 439 442 l 411 294 l 408 294 l 383 442 l 263 875 l 18 875 l 288 0 l 525 0 l 642 396 l 671 540 l 674 540 l 700 396 l 817 0 l 1053 0 l 1325 875 z m 738 1357 l 481 1057 l 571 965 l 872 1224 z "},"Ǽ":{"ha":1611,"x_min":0,"x_max":0,"o":"m 489 471 l 511 490 l 700 892 l 690 914 l 763 914 l 750 892 l 750 493 l 764 471 z m 1514 211 l 971 211 l 986 233 l 986 435 l 971 457 l 1447 457 l 1447 668 l 971 668 l 986 690 l 986 892 l 975 914 l 1514 914 l 1514 1125 l 563 1125 l 21 0 l 279 0 l 392 236 l 385 260 l 763 260 l 749 238 l 750 0 l 1514 0 z m 931 1606 l 672 1304 l 764 1214 l 1065 1472 z "},"ǽ":{"ha":1651,"x_min":0,"x_max":0,"o":"m 700 358 l 700 281 b 476 186 700 194 561 186 b 306 272 408 186 306 194 b 422 364 306 315 339 346 b 551 379 464 374 508 378 b 676 382 597 382 640 382 b 718 381 682 382 713 381 z m 917 536 l 938 558 b 1142 694 972 644 1035 694 b 1342 558 1240 694 1307 646 l 1361 536 z m 1582 431 b 1140 889 1582 676 1426 889 b 838 747 1011 889 900 828 b 835 746 838 747 836 746 b 519 888 765 842 653 888 b 125 758 375 888 253 856 l 268 615 b 522 697 349 679 433 697 b 694 589 624 697 689 663 l 714 567 b 640 568 714 567 647 567 b 69 275 424 568 69 542 b 475 -15 69 57 286 -15 b 826 115 613 -15 740 14 b 829 117 826 115 828 117 b 1146 -12 919 32 1032 -12 b 1514 133 1293 -12 1411 38 l 1372 274 b 1147 181 1303 214 1233 181 b 938 317 1040 181 969 232 l 918 339 l 1576 339 b 1582 431 1581 400 1582 411 z m 928 1357 l 669 1057 l 760 965 l 1061 1224 z "},"Ǿ":{"ha":1311,"x_min":0,"x_max":0,"o":"m 738 903 l 400 325 l 399 296 b 317 556 339 368 317 456 b 656 929 317 772 417 929 b 758 915 689 929 731 925 z m 994 556 b 656 196 994 344 897 196 b 513 221 606 196 553 203 l 533 235 l 882 832 l 882 856 b 994 556 964 790 994 685 z m 1235 556 b 997 1049 1235 764 1163 938 l 1015 1060 l 1051 1121 l 914 1203 l 871 1132 l 871 1108 b 656 1140 808 1128 731 1140 b 76 556 276 1140 76 890 b 281 92 76 364 146 196 l 258 82 l 192 -32 l 331 -114 l 399 4 l 396 29 b 656 -17 474 -4 565 -17 b 1235 556 1029 -17 1235 219 z m 738 1606 l 479 1304 l 571 1214 l 872 1472 z "},"ǿ":{"ha":1000,"x_min":0,"x_max":0,"o":"m 547 661 l 338 304 l 332 271 b 286 438 300 311 286 378 b 500 689 286 592 351 689 b 572 678 524 689 554 685 z m 714 438 b 500 186 714 283 649 186 b 432 197 482 186 449 189 l 460 219 l 667 568 l 672 604 b 714 438 704 556 714 494 z m 931 438 b 789 797 931 578 892 703 l 810 810 l 863 897 l 732 971 l 682 883 l 679 856 b 499 889 629 878 561 889 b 69 438 211 889 69 693 b 215 76 69 296 119 157 l 193 61 l 142 -25 l 269 -101 l 322 -14 l 322 15 b 503 -15 374 -6 444 -15 b 931 438 789 -15 931 182 z m 589 1357 l 332 1057 l 422 965 l 724 1224 z "},"Ǻ":{"ha":1332,"x_min":0,"x_max":0,"o":"m 490 465 l 514 488 l 631 732 l 665 833 l 668 835 l 703 732 l 819 488 l 843 465 z m 725 1208 b 667 1146 725 1171 707 1146 b 610 1208 628 1146 610 1171 b 667 1272 610 1247 628 1272 b 725 1208 706 1272 725 1247 z m 789 1086 b 836 1208 819 1118 836 1157 b 667 1383 836 1308 779 1383 b 497 1208 554 1383 497 1307 b 544 1086 497 1157 514 1117 l 21 0 l 281 0 l 397 247 l 383 268 l 949 268 l 935 247 l 1053 0 l 1311 0 z m 746 1815 l 488 1514 l 578 1422 l 879 1681 z "},"ǻ":{"ha":1053,"x_min":0,"x_max":0,"o":"m 713 357 l 713 274 b 474 178 713 186 544 178 b 300 269 383 178 300 206 b 424 363 300 314 336 344 b 561 378 467 372 515 376 b 682 381 608 381 644 381 b 735 379 688 381 726 381 z m 589 1125 b 532 1063 589 1086 571 1063 b 474 1125 493 1063 474 1088 b 532 1189 474 1164 492 1189 b 589 1125 571 1189 589 1164 z m 944 543 b 535 888 944 785 771 888 b 132 767 386 888 251 851 l 275 622 b 532 696 354 675 444 696 b 708 585 636 696 703 658 l 732 563 b 654 564 724 564 661 564 b 69 272 432 564 69 538 b 465 -15 69 47 293 -15 b 710 49 554 -15 644 6 l 713 49 l 713 -1 l 944 -1 l 944 543 z m 700 1125 b 531 1297 700 1224 644 1297 b 363 1125 418 1297 363 1224 b 532 953 363 1026 418 953 b 700 1125 643 953 700 1028 z m 604 1726 l 346 1425 l 436 1335 l 738 1593 z "},"Č":{"ha":1194,"x_min":0,"x_max":0,"o":"m 993 344 b 679 196 919 249 814 196 b 317 556 418 196 317 349 b 681 928 317 769 425 928 b 989 778 815 928 917 876 l 1151 940 b 681 1138 1033 1074 882 1138 b 76 556 292 1138 76 892 b 679 -15 76 219 283 -15 b 1153 186 872 -15 1033 57 z m 861 1581 l 668 1424 l 474 1581 l 388 1494 l 665 1215 l 668 1215 l 949 1494 z "},"č":{"ha":943,"x_min":0,"x_max":0,"o":"m 754 279 b 539 188 689 215 625 188 b 301 431 371 188 301 290 b 542 688 301 578 383 686 b 749 599 628 688 690 660 l 901 751 b 540 889 815 838 699 889 b 69 432 239 889 69 685 b 538 -14 69 183 221 -14 b 906 128 682 -14 810 38 z m 726 1332 l 533 1175 l 340 1332 l 253 1246 l 531 967 l 533 967 l 814 1246 z "},"Ě":{"ha":1153,"x_min":0,"x_max":0,"o":"m 1056 211 l 339 211 l 361 233 l 361 435 l 339 457 l 989 457 l 989 668 l 339 668 l 361 690 l 361 892 l 339 914 l 1056 914 l 1056 1125 l 125 1125 l 125 0 l 1056 0 z m 799 1581 l 606 1424 l 411 1581 l 324 1494 l 601 1215 l 606 1215 l 886 1494 z "},"ě":{"ha":1069,"x_min":0,"x_max":0,"o":"m 299 533 l 319 556 b 538 699 356 644 424 699 b 751 556 649 699 719 647 l 774 533 z m 1000 431 b 538 889 1000 686 849 889 b 69 431 240 889 69 693 b 550 -14 69 182 226 -14 b 918 119 696 -14 814 29 l 778 261 b 550 178 708 204 638 178 b 317 325 431 178 350 236 l 296 347 l 994 347 b 1000 431 999 375 1000 408 z m 726 1332 l 533 1175 l 340 1332 l 253 1246 l 531 967 l 533 967 l 814 1246 z "},"Ň":{"ha":1278,"x_min":0,"x_max":0,"o":"m 1153 1125 l 917 1125 l 917 378 l 914 378 l 836 506 l 324 1125 l 125 1125 l 125 0 l 361 0 l 361 751 l 364 751 l 447 619 l 954 0 l 1153 0 z m 831 1581 l 638 1424 l 443 1581 l 357 1494 l 635 1215 l 638 1215 l 918 1494 z "},"ň":{"ha":1094,"x_min":0,"x_max":0,"o":"m 988 543 b 603 889 988 761 835 889 b 350 800 506 889 410 854 l 347 800 l 347 876 l 115 876 l 115 0 l 347 0 l 347 511 b 563 689 347 626 435 689 b 756 521 729 689 756 626 l 756 0 l 986 0 l 988 543 z m 771 1332 l 578 1175 l 383 1332 l 296 1246 l 575 967 l 578 967 l 858 1246 z "},"Ř":{"ha":1229,"x_min":0,"x_max":0,"o":"m 860 768 b 656 625 860 694 800 625 l 339 625 l 361 647 l 361 893 l 339 914 l 669 914 b 860 768 793 914 860 864 z m 1022 381 b 908 497 992 439 946 481 l 908 500 b 1100 774 1008 546 1100 654 b 669 1125 1100 1014 893 1125 l 125 1125 l 125 0 l 361 0 l 361 403 l 339 424 l 563 424 b 803 297 693 424 757 385 l 957 0 l 1222 0 z m 793 1581 l 600 1424 l 406 1581 l 318 1494 l 596 1215 l 600 1215 l 881 1494 z "},"ř":{"ha":681,"x_min":0,"x_max":0,"o":"m 656 885 l 604 885 b 350 758 486 885 400 838 l 347 758 l 347 875 l 115 875 l 115 0 l 347 0 l 347 433 b 586 674 347 597 422 674 l 656 674 z m 581 1332 l 388 1175 l 194 1332 l 107 1246 l 385 967 l 388 967 l 668 1246 z "},"Ť":{"ha":1069,"x_min":0,"x_max":0,"o":"m 1042 1125 l 28 1125 l 28 914 l 429 914 l 417 892 l 417 0 l 653 0 l 653 892 l 640 914 l 1042 914 z m 733 1581 l 540 1424 l 346 1581 l 260 1494 l 538 1215 l 540 1215 l 821 1494 z "},"ť":{"ha":753,"x_min":0,"x_max":0,"o":"m 604 254 b 475 185 560 206 522 185 b 388 294 424 185 388 222 l 388 668 l 375 689 l 646 689 l 646 875 l 375 875 l 388 896 l 388 1124 l 156 1000 l 156 896 l 167 875 l 39 875 l 39 689 l 167 689 l 156 668 l 156 294 b 454 -14 156 90 253 -14 b 740 118 564 -14 650 29 z m 694 1214 b 582 1332 694 1286 656 1332 b 469 1214 508 1332 469 1286 b 554 1100 469 1153 504 1111 l 529 1082 l 475 990 l 563 942 l 675 1142 b 694 1214 686 1163 694 1185 z "},"Ď":{"ha":1247,"x_min":0,"x_max":0,"o":"m 931 563 b 594 211 931 360 886 211 l 339 211 l 361 233 l 361 892 l 339 914 l 589 914 b 931 563 883 914 931 763 z m 1171 563 b 603 1125 1171 818 1086 1125 l 125 1125 l 125 0 l 608 0 b 1171 563 1089 0 1171 307 z m 789 1581 l 596 1424 l 401 1581 l 315 1494 l 593 1215 l 596 1215 l 876 1494 z "},"ď":{"ha":1282,"x_min":0,"x_max":0,"o":"m 763 436 b 532 186 763 282 697 186 b 301 436 367 186 301 281 b 532 689 301 592 368 689 b 763 436 699 689 763 592 z m 983 1165 l 751 1165 l 751 807 l 749 807 b 513 889 696 857 599 889 b 69 436 217 889 69 696 b 511 -14 69 176 221 -14 b 749 63 608 -14 690 10 l 751 63 l 751 -1 l 983 -1 z m 1304 1249 b 1192 1369 1304 1321 1267 1369 b 1079 1249 1118 1369 1079 1319 b 1161 1132 1079 1188 1114 1142 l 1139 1115 l 1081 1015 l 1169 965 l 1285 1174 b 1304 1249 1296 1194 1304 1219 z "},"Ş":{"ha":1174,"x_min":0,"x_max":0,"o":"m 1104 321 b 753 650 1104 471 988 593 b 571 696 726 656 596 689 b 338 818 389 742 338 771 b 588 929 338 871 404 929 b 915 782 718 929 838 871 l 1081 946 b 590 1139 958 1071 792 1139 b 97 813 268 1139 97 992 b 476 496 97 622 276 547 b 685 444 503 489 660 450 b 864 317 832 408 864 353 b 613 196 864 254 797 196 b 233 349 482 196 349 244 l 69 185 b 515 -10 188 71 347 6 l 563 -56 b 557 -126 581 -72 586 -99 l 454 -228 l 553 -325 l 689 -189 b 690 -37 740 -139 736 -82 l 665 -14 b 1104 321 968 6 1104 156 z "},"ş":{"ha":974,"x_min":0,"x_max":0,"o":"m 904 261 b 624 514 904 393 808 468 b 483 551 604 519 501 547 b 329 628 376 578 329 592 b 490 697 329 653 360 697 b 738 599 585 697 675 660 l 882 742 b 489 888 782 839 653 888 b 96 625 240 888 96 776 b 400 367 96 465 250 404 b 557 326 419 363 538 331 b 671 251 658 301 671 279 b 499 178 671 219 632 178 b 218 300 399 178 292 224 l 69 150 b 422 -10 176 57 294 4 l 424 -11 l 468 -56 b 463 -126 485 -72 492 -99 l 360 -228 l 458 -325 l 594 -189 b 596 -37 646 -139 642 -82 l 569 -12 b 904 261 796 7 904 125 z "},"Ţ":{"ha":1069,"x_min":0,"x_max":0,"o":"m 1042 1125 l 28 1125 l 28 914 l 429 914 l 417 892 l 417 0 l 447 0 l 504 -56 b 499 -126 521 -72 528 -99 l 396 -228 l 493 -325 l 631 -189 b 631 -37 681 -139 678 -82 l 593 0 l 653 0 l 653 892 l 640 914 l 1042 914 z "},"ţ":{"ha":758,"x_min":0,"x_max":0,"o":"m 604 254 b 475 185 553 203 522 185 b 388 294 424 185 388 222 l 388 668 l 375 689 l 646 689 l 646 875 l 375 875 l 388 896 l 388 1124 l 156 1000 l 156 896 l 167 875 l 39 875 l 39 689 l 167 689 l 156 668 l 156 294 b 286 26 156 161 199 76 l 368 -56 b 363 -126 385 -72 392 -99 l 260 -228 l 357 -325 l 494 -189 b 494 -37 544 -139 540 -82 l 471 -14 b 740 118 572 -10 651 32 z "},"Ľ":{"ha":1011,"x_min":0,"x_max":0,"o":"m 990 211 l 340 211 l 361 232 l 361 1125 l 125 1125 l 125 0 l 990 0 z m 738 1018 b 625 1139 738 1090 699 1139 b 513 1018 551 1139 513 1089 b 594 901 513 957 546 911 l 571 885 l 514 785 l 601 735 l 718 943 b 738 1018 729 964 738 989 z "},"ľ":{"ha":628,"x_min":0,"x_max":0,"o":"m 347 1167 l 115 1167 l 115 0 l 347 0 z m 667 1054 b 554 1175 667 1125 628 1175 b 442 1054 481 1175 442 1125 b 524 936 442 992 475 947 l 500 921 l 443 819 l 531 769 l 647 978 b 667 1054 658 999 667 1024 z "},"ŉ":{"ha":1228,"x_min":0,"x_max":0,"o":"m 225 1017 b 113 1138 225 1089 186 1138 b 0 1017 39 1138 0 1088 b 82 900 0 956 35 910 l 60 883 l 1 783 l 89 733 l 206 942 b 225 1017 217 963 225 988 z m 1119 543 b 735 889 1119 761 967 889 b 482 800 639 889 542 854 l 479 800 l 479 876 l 247 876 l 247 0 l 479 0 l 479 511 b 696 689 479 626 568 689 b 888 521 861 689 888 626 l 888 0 l 1119 0 l 1119 543 z "},"Ą":{"ha":1332,"x_min":0,"x_max":0,"o":"m 490 465 l 514 488 l 631 732 l 665 833 l 668 835 l 703 732 l 819 488 l 843 465 z m 771 1125 l 563 1125 l 21 0 l 281 0 l 397 247 l 383 268 l 949 268 l 935 247 l 1053 0 l 1103 0 l 990 -117 b 933 -251 958 -150 932 -201 b 1094 -403 938 -340 1013 -407 b 1213 -349 1147 -400 1185 -378 b 1263 -293 1228 -332 1232 -326 l 1185 -215 b 1146 -256 1174 -226 1147 -254 b 1117 -268 1138 -264 1128 -267 b 1074 -224 1097 -268 1074 -247 b 1086 -189 1072 -212 1076 -199 l 1254 0 l 1311 0 z "},"ą":{"ha":1053,"x_min":0,"x_max":0,"o":"m 713 357 l 713 274 b 474 178 713 186 544 178 b 300 269 383 178 300 206 b 424 363 300 314 336 344 b 561 378 467 372 515 376 b 682 381 608 381 644 381 b 735 379 688 381 726 381 z m 944 543 b 535 888 944 783 771 888 b 132 767 386 888 251 851 l 275 622 b 532 696 354 675 444 696 b 708 585 636 696 703 658 l 732 563 b 654 564 724 564 661 564 b 69 272 432 564 69 538 b 465 -15 69 47 293 -15 b 710 49 554 -15 644 6 l 713 49 l 713 0 l 713 -1 l 600 -117 b 543 -251 568 -150 542 -201 b 704 -403 547 -340 622 -407 b 822 -349 757 -400 794 -378 b 872 -293 838 -332 842 -326 l 794 -215 b 756 -256 783 -226 757 -254 b 726 -268 747 -264 738 -267 b 683 -224 707 -268 683 -247 b 696 -189 682 -212 686 -199 l 863 -1 l 944 -1 l 944 543 z "},"Ę":{"ha":1153,"x_min":0,"x_max":0,"o":"m 1056 211 l 339 211 l 361 233 l 361 435 l 339 457 l 989 457 l 989 668 l 339 668 l 361 690 l 361 892 l 339 914 l 1056 914 l 1056 1125 l 125 1125 l 125 0 l 869 0 l 756 -117 b 699 -251 722 -150 696 -201 b 860 -403 701 -340 778 -407 b 976 -349 913 -400 949 -378 b 1028 -293 993 -332 997 -326 l 949 -215 b 911 -256 939 -226 911 -254 b 882 -268 903 -264 893 -267 b 838 -224 861 -268 839 -247 b 850 -189 838 -212 840 -199 l 1019 0 l 1056 0 z "},"ę":{"ha":1069,"x_min":0,"x_max":0,"o":"m 299 533 l 319 556 b 538 699 356 644 424 699 b 751 556 649 699 719 647 l 774 533 z m 1000 431 b 538 889 1000 686 849 889 b 69 431 240 889 69 693 b 550 -14 69 182 226 -14 b 597 -12 565 -14 582 -14 l 496 -117 b 439 -251 463 -150 436 -201 b 600 -403 442 -340 518 -407 b 717 -349 653 -400 689 -378 b 768 -293 733 -332 738 -326 l 689 -215 b 651 -256 679 -226 651 -254 b 622 -268 643 -264 633 -267 b 578 -224 601 -268 579 -247 b 590 -189 578 -212 581 -199 l 793 38 b 918 119 838 58 879 86 l 778 261 b 550 178 708 204 638 178 b 317 325 431 178 350 236 l 296 347 l 994 347 b 1000 431 999 375 1000 408 z "},"Į":{"ha":500,"x_min":0,"x_max":0,"o":"m 368 1125 l 132 1125 l 132 0 l 183 0 l 69 -117 b 13 -251 36 -150 10 -201 b 174 -403 15 -340 92 -407 b 290 -349 226 -400 263 -378 b 342 -293 307 -332 311 -326 l 263 -215 b 225 -256 253 -226 225 -254 b 196 -268 217 -264 207 -267 b 151 -224 175 -268 153 -247 b 164 -189 151 -212 154 -199 l 333 0 l 368 0 z "},"į":{"ha":461,"x_min":0,"x_max":0,"o":"m 346 875 l 114 875 l 114 0 l 167 0 l 53 -117 b -4 -251 19 -150 -7 -201 b 157 -403 -1 -340 75 -407 b 274 -349 208 -400 246 -378 b 325 -293 290 -332 294 -326 l 246 -215 b 208 -256 236 -226 208 -254 b 179 -268 200 -264 190 -267 b 135 -224 158 -268 136 -247 b 147 -189 135 -212 138 -199 l 317 0 l 346 0 z m 356 1061 b 231 1189 356 1133 306 1189 b 106 1061 157 1189 106 1133 b 231 933 106 989 156 933 b 356 1061 304 933 356 989 z "},"Ų":{"ha":1294,"x_min":0,"x_max":0,"o":"m 1176 1125 l 940 1125 l 940 519 b 647 197 940 307 860 197 b 354 519 432 197 354 307 l 354 1125 l 118 1125 l 118 518 b 631 -14 118 185 283 -8 l 531 -117 b 474 -251 499 -150 472 -201 b 635 -403 478 -340 553 -407 b 753 -349 688 -400 725 -378 b 803 -293 768 -332 772 -326 l 725 -215 b 686 -256 714 -226 688 -254 b 657 -268 678 -264 668 -267 b 614 -224 638 -268 614 -247 b 626 -189 613 -212 617 -199 l 793 -1 b 1176 518 1053 46 1176 231 z "},"ų":{"ha":1083,"x_min":0,"x_max":0,"o":"m 969 875 l 738 875 l 738 364 b 526 186 738 249 653 186 b 340 354 383 186 340 249 l 340 875 l 108 875 l 108 342 b 492 -14 107 126 226 -14 b 735 75 588 -14 678 18 l 738 75 l 738 0 l 624 -117 b 567 -251 590 -150 564 -201 b 728 -403 569 -340 646 -407 b 844 -349 781 -400 817 -378 b 896 -293 861 -332 865 -326 l 817 -215 b 779 -256 807 -226 779 -254 b 750 -268 771 -264 761 -267 b 706 -224 729 -268 707 -247 b 718 -189 706 -212 708 -199 l 886 -1 l 969 -1 z "},"Ā":{"ha":1332,"x_min":0,"x_max":0,"o":"m 490 465 l 514 488 l 631 732 l 665 833 l 668 835 l 703 732 l 819 488 l 843 465 z m 771 1125 l 563 1125 l 21 0 l 281 0 l 397 247 l 383 268 l 949 268 l 935 247 l 1053 0 l 1311 0 z m 946 1396 l 381 1396 l 381 1250 l 946 1250 z "},"ā":{"ha":1053,"x_min":0,"x_max":0,"o":"m 713 357 l 713 274 b 474 178 713 186 544 178 b 300 269 383 178 300 206 b 424 363 300 314 336 344 b 561 378 467 372 515 376 b 682 381 608 381 644 381 b 735 379 688 381 726 381 z m 944 543 b 535 888 944 783 771 888 b 132 767 386 888 251 851 l 275 622 b 532 696 354 675 444 696 b 708 585 636 696 703 658 l 732 563 b 654 564 724 564 661 564 b 69 272 432 564 69 538 b 465 -15 69 47 293 -15 b 710 49 554 -15 644 6 l 713 49 l 713 -1 l 944 -1 l 944 543 z m 833 1169 l 269 1169 l 269 1024 l 833 1024 z "},"Ē":{"ha":1153,"x_min":0,"x_max":0,"o":"m 1056 211 l 339 211 l 361 233 l 361 435 l 339 457 l 989 457 l 989 668 l 339 668 l 361 690 l 361 892 l 339 914 l 1056 914 l 1056 1125 l 125 1125 l 125 0 l 1056 0 z m 896 1396 l 331 1396 l 331 1250 l 896 1250 z "},"ē":{"ha":1069,"x_min":0,"x_max":0,"o":"m 299 533 l 319 556 b 538 699 356 644 424 699 b 751 556 649 699 719 647 l 774 533 z m 1000 431 b 538 889 1000 686 849 889 b 69 431 240 889 69 693 b 550 -14 69 182 226 -14 b 918 119 696 -14 814 29 l 778 261 b 550 178 708 204 638 178 b 317 325 431 178 350 236 l 296 347 l 994 347 b 1000 431 999 375 1000 408 z m 826 1169 l 263 1169 l 263 1024 l 826 1024 z "},"Ī":{"ha":500,"x_min":0,"x_max":0,"o":"m 368 1125 l 132 1125 l 132 0 l 368 0 z m 532 1396 l -33 1396 l -33 1250 l 532 1250 z "},"ī":{"ha":461,"x_min":0,"x_max":0,"o":"m 347 875 l 115 875 l 115 0 l 347 0 z m 514 1169 l -51 1169 l -51 1024 l 514 1024 z "},"Ō":{"ha":1311,"x_min":0,"x_max":0,"o":"m 994 556 b 656 197 994 346 897 197 b 317 556 417 197 317 346 b 656 928 317 772 417 928 b 994 556 897 928 994 767 z m 1235 556 b 656 1139 1235 890 1038 1139 b 76 556 276 1139 76 890 b 656 -14 76 221 276 -14 b 1235 556 1029 -14 1235 221 z m 939 1396 l 374 1396 l 374 1250 l 939 1250 z "},"ō":{"ha":1069,"x_min":0,"x_max":0,"o":"m 768 438 b 535 185 768 288 697 185 b 301 438 374 185 301 288 b 535 689 301 589 371 689 b 768 438 697 689 768 588 z m 1000 438 b 533 889 1000 693 846 889 b 69 438 224 889 69 692 b 535 -14 69 183 224 -14 b 1000 438 843 -14 1000 185 z m 818 1169 l 254 1169 l 254 1024 l 818 1024 z "},"Ū":{"ha":1294,"x_min":0,"x_max":0,"o":"m 1176 1125 l 940 1125 l 940 519 b 647 197 940 307 860 197 b 354 519 432 197 354 307 l 354 1125 l 118 1125 l 118 518 b 649 -14 118 179 289 -14 b 1176 518 1007 -14 1176 182 z m 935 1396 l 369 1396 l 369 1250 l 935 1250 z "},"ū":{"ha":1083,"x_min":0,"x_max":0,"o":"m 969 875 l 738 875 l 738 364 b 526 186 738 249 653 186 b 340 354 383 186 340 249 l 340 875 l 108 875 l 108 342 b 492 -14 107 126 226 -14 b 735 75 588 -14 678 18 l 738 75 l 738 -1 l 969 -1 z m 828 1169 l 263 1169 l 263 1024 l 828 1024 z "},"Đ":{"ha":1247,"x_min":0,"x_max":0,"o":"m 931 563 b 594 211 931 360 886 211 l 349 211 l 361 249 l 361 435 l 349 457 l 632 457 l 632 668 l 349 668 l 361 690 l 361 878 l 349 915 l 589 915 b 931 563 883 915 931 763 z m 1171 563 b 603 1125 1171 818 1086 1125 l 125 1125 l 125 690 l 138 668 l 35 668 l 35 457 l 138 457 l 125 435 l 125 0 l 608 0 b 1171 563 1089 0 1171 307 z "},"đ":{"ha":1099,"x_min":0,"x_max":0,"o":"m 763 436 b 532 186 763 282 697 186 b 301 436 367 186 301 281 b 532 689 301 592 368 689 b 763 436 699 689 763 592 z m 1050 1103 l 974 1103 l 983 1121 l 983 1167 l 751 1167 l 751 1121 l 761 1103 l 472 1103 l 472 964 l 761 964 l 751 947 l 751 807 l 749 807 b 513 889 696 857 599 889 b 69 436 217 889 69 696 b 511 -14 69 176 221 -14 b 749 63 608 -14 690 10 l 751 63 l 751 -1 l 983 -1 l 983 947 l 974 964 l 1050 964 z "},"ĸ":{"ha":1075,"x_min":0,"x_max":0,"o":"m 347 875 l 115 875 l 115 0 l 347 0 z m 639 444 l 638 446 l 1060 875 l 772 875 l 361 444 l 779 0 l 1075 0 z "},"Ĉ":{"ha":1194,"x_min":0,"x_max":0,"o":"m 993 344 b 679 196 919 249 814 196 b 317 556 418 196 317 349 b 681 928 317 769 425 928 b 989 778 815 928 917 876 l 1151 940 b 681 1138 1033 1074 882 1138 b 76 556 292 1138 76 892 b 679 -15 76 219 283 -15 b 1153 186 872 -15 1033 57 z m 669 1578 l 667 1578 l 386 1299 l 474 1213 l 667 1369 l 861 1213 l 947 1299 z "},"ĉ":{"ha":943,"x_min":0,"x_max":0,"o":"m 754 279 b 539 188 689 215 625 188 b 301 431 371 188 301 290 b 542 688 301 578 383 686 b 749 599 628 688 690 660 l 901 751 b 540 889 815 838 699 889 b 69 432 239 889 69 685 b 538 -14 69 183 221 -14 b 906 128 682 -14 810 38 z m 521 1332 l 518 1332 l 238 1054 l 325 967 l 518 1125 l 711 967 l 799 1054 z "},"Ĝ":{"ha":1333,"x_min":0,"x_max":0,"o":"m 1208 668 l 619 668 l 619 458 l 1010 458 l 986 436 b 676 196 971 297 850 196 b 317 553 428 196 317 325 b 685 929 317 792 433 929 b 988 801 804 929 908 893 l 1150 965 b 685 1139 1035 1085 865 1139 b 76 553 301 1139 76 904 b 676 -14 76 208 296 -14 b 1004 106 806 -14 938 35 l 1004 -1 l 1208 -1 z m 669 1578 l 667 1578 l 386 1299 l 474 1213 l 667 1369 l 861 1213 l 947 1299 z "},"ĝ":{"ha":1099,"x_min":0,"x_max":0,"o":"m 763 464 b 532 244 763 336 701 244 b 301 464 379 244 301 331 b 532 690 301 594 374 690 b 763 464 689 690 763 597 z m 751 875 l 751 815 l 749 815 b 519 889 701 858 604 889 b 69 467 225 889 69 697 b 521 44 69 218 222 44 b 749 111 610 44 694 71 l 751 111 l 751 86 b 535 -100 751 -29 676 -100 b 274 -17 446 -100 353 -71 l 118 -172 b 535 -299 247 -260 376 -299 b 983 94 831 -299 983 -154 l 983 875 z m 554 1332 l 551 1332 l 271 1054 l 358 967 l 551 1125 l 744 967 l 832 1054 z "},"Ĥ":{"ha":1278,"x_min":0,"x_max":0,"o":"m 1153 1125 l 917 1125 l 917 690 l 939 668 l 339 668 l 361 690 l 361 1125 l 125 1125 l 125 0 l 361 0 l 361 435 l 339 457 l 939 457 l 917 435 l 917 0 l 1153 0 z m 640 1578 l 638 1578 l 357 1299 l 444 1213 l 638 1369 l 832 1213 l 918 1299 z "},"ĥ":{"ha":1094,"x_min":0,"x_max":0,"o":"m 988 536 b 593 888 988 744 851 888 b 350 810 504 888 406 858 l 347 810 l 347 1167 l 115 1167 l 115 0 l 347 0 l 347 501 b 563 686 347 619 436 686 b 756 511 729 686 756 608 l 756 0 l 986 0 l 988 536 z m 560 1579 l 557 1579 l 276 1300 l 364 1214 l 557 1371 l 751 1214 l 838 1300 z "},"Ĵ":{"ha":956,"x_min":0,"x_max":0,"o":"m 838 1125 l 601 1125 l 601 418 b 385 197 601 246 493 197 b 160 332 308 197 219 247 l 0 172 b 383 -14 100 50 226 -14 b 838 425 619 -14 838 100 z m 715 1578 l 713 1578 l 432 1299 l 519 1213 l 713 1369 l 906 1213 l 993 1299 z "},"ĵ":{"ha":454,"x_min":0,"x_max":0,"o":"m 340 875 l 108 875 l 108 -29 b 39 -101 108 -76 81 -101 b -93 -67 -3 -101 -49 -90 l -93 -264 b 67 -299 -44 -283 11 -299 b 340 -36 239 -299 340 -215 z m 221 1332 l 218 1332 l -62 1054 l 25 967 l 218 1125 l 411 967 l 499 1054 z "},"Ŝ":{"ha":1174,"x_min":0,"x_max":0,"o":"m 1104 321 b 753 650 1104 471 988 593 b 571 696 726 656 596 689 b 338 818 389 742 338 771 b 588 929 338 871 404 929 b 915 782 718 929 838 871 l 1081 946 b 590 1139 958 1071 792 1139 b 97 813 268 1139 97 992 b 476 496 97 622 276 547 b 685 444 503 489 660 450 b 864 317 832 408 864 353 b 613 196 864 254 797 196 b 233 349 482 196 349 244 l 69 185 b 604 -14 211 49 404 -14 b 1104 321 951 -14 1104 147 z m 594 1578 l 592 1578 l 311 1299 l 399 1213 l 592 1369 l 785 1213 l 872 1299 z "},"ŝ":{"ha":974,"x_min":0,"x_max":0,"o":"m 904 261 b 624 514 904 393 808 468 b 483 551 604 519 501 547 b 329 628 376 578 329 592 b 490 697 329 653 360 697 b 738 599 585 697 675 660 l 882 742 b 489 888 782 839 653 888 b 96 625 240 888 96 776 b 400 367 96 465 250 404 b 557 326 419 363 538 331 b 671 251 658 301 671 279 b 499 178 671 219 632 178 b 218 300 399 178 292 222 l 69 150 b 503 -15 199 39 343 -15 b 904 261 774 -15 904 113 z m 488 1332 l 485 1332 l 204 1054 l 292 967 l 485 1125 l 679 967 l 767 1054 z "},"Ŵ":{"ha":1582,"x_min":0,"x_max":0,"o":"m 1300 1125 l 1115 467 l 1093 350 l 1090 350 l 1067 467 l 881 1125 l 703 1125 l 517 467 l 494 347 l 492 347 l 468 467 l 285 1125 l 35 1125 l 363 0 l 608 0 l 763 547 l 786 672 l 789 672 l 813 547 l 967 0 l 1219 0 l 1547 1125 z m 792 1578 l 789 1578 l 508 1299 l 596 1213 l 789 1369 l 982 1213 l 1069 1299 z "},"ŵ":{"ha":1343,"x_min":0,"x_max":0,"o":"m 1082 875 l 961 442 l 936 293 l 933 293 l 906 442 l 768 875 l 575 875 l 439 442 l 411 294 l 408 294 l 383 442 l 263 875 l 18 875 l 288 0 l 525 0 l 642 396 l 671 540 l 674 540 l 700 396 l 817 0 l 1053 0 l 1325 875 z m 674 1332 l 671 1332 l 390 1054 l 478 967 l 671 1125 l 864 967 l 951 1054 z "},"Ŷ":{"ha":1289,"x_min":0,"x_max":0,"o":"m 974 1125 l 711 771 l 646 660 l 643 660 l 578 771 l 317 1125 l 21 1125 l 526 464 l 526 0 l 764 0 l 764 464 l 1268 1125 z m 646 1578 l 643 1578 l 363 1299 l 450 1213 l 643 1369 l 836 1213 l 924 1299 z "},"ŷ":{"ha":1071,"x_min":0,"x_max":0,"o":"m 797 875 l 590 388 l 551 257 l 549 257 l 504 388 l 275 875 l 19 875 l 435 19 b 304 -100 394 -76 351 -100 b 111 -37 257 -100 201 -85 l 111 -247 b 326 -299 190 -286 253 -299 b 628 -82 464 -299 571 -208 l 1053 875 z m 528 1332 l 525 1332 l 244 1054 l 332 967 l 525 1125 l 719 967 l 807 1054 z "},"Ů":{"ha":1294,"x_min":0,"x_max":0,"o":"m 706 1389 b 649 1326 706 1351 688 1326 b 590 1389 608 1326 590 1351 b 649 1453 590 1428 608 1453 b 706 1389 688 1453 706 1428 z m 1176 1125 l 940 1125 l 940 519 b 647 197 940 307 860 197 b 354 519 432 197 354 307 l 354 1125 l 118 1125 l 118 518 b 649 -14 118 179 289 -14 b 1176 518 1007 -14 1176 182 z m 817 1389 b 647 1564 817 1489 761 1564 b 479 1389 535 1564 479 1488 b 649 1215 479 1292 535 1215 b 817 1389 760 1215 817 1292 z "},"ů":{"ha":1083,"x_min":0,"x_max":0,"o":"m 597 1139 b 540 1076 597 1100 579 1076 b 482 1139 501 1076 482 1101 b 540 1203 482 1178 500 1203 b 597 1139 579 1203 597 1178 z m 969 875 l 738 875 l 738 364 b 526 186 738 249 653 186 b 340 354 385 186 340 249 l 340 875 l 108 875 l 108 342 b 492 -14 107 126 226 -14 b 735 75 588 -14 678 18 l 738 75 l 738 -1 l 969 -1 z m 708 1139 b 539 1313 708 1238 653 1313 b 371 1139 426 1313 371 1238 b 540 965 371 1040 426 965 b 708 1139 651 965 708 1042 z "},"Ő":{"ha":1311,"x_min":0,"x_max":0,"o":"m 994 556 b 656 197 994 346 897 197 b 317 556 417 197 317 346 b 656 928 317 772 417 928 b 994 556 897 928 994 767 z m 1235 556 b 656 1139 1235 890 1038 1139 b 76 556 276 1139 76 890 b 656 -14 76 221 276 -14 b 1235 556 1029 -14 1235 221 z m 601 1549 l 394 1299 l 479 1215 l 729 1419 z m 921 1549 l 714 1299 l 799 1215 l 1049 1419 z "},"ő":{"ha":1069,"x_min":0,"x_max":0,"o":"m 768 438 b 535 185 768 288 697 185 b 301 438 374 185 301 288 b 535 689 301 589 371 689 b 768 438 697 689 768 588 z m 1000 438 b 533 889 1000 693 846 889 b 69 438 224 889 69 692 b 535 -14 69 183 224 -14 b 1000 438 843 -14 1000 185 z m 460 1288 l 253 1036 l 338 953 l 588 1158 z m 779 1288 l 572 1036 l 657 953 l 907 1158 z "},"Ű":{"ha":1294,"x_min":0,"x_max":0,"o":"m 1176 1125 l 940 1125 l 940 519 b 647 197 940 307 860 197 b 354 519 432 197 354 307 l 354 1125 l 118 1125 l 118 518 b 649 -14 118 179 289 -14 b 1176 518 1007 -14 1176 182 z m 592 1549 l 386 1299 l 469 1215 l 721 1419 z m 911 1549 l 706 1299 l 789 1215 l 1040 1419 z "},"ű":{"ha":1083,"x_min":0,"x_max":0,"o":"m 969 875 l 738 875 l 738 364 b 526 186 738 249 653 186 b 340 354 385 186 340 249 l 340 875 l 108 875 l 108 342 b 492 -14 107 126 226 -14 b 735 75 588 -14 678 18 l 738 75 l 738 -1 l 969 -1 z m 451 1288 l 244 1036 l 329 953 l 579 1158 z m 771 1288 l 564 1036 l 649 953 l 899 1158 z "},"Ă":{"ha":1332,"x_min":0,"x_max":0,"o":"m 490 465 l 514 488 l 631 732 l 665 833 l 668 835 l 703 732 l 819 488 l 843 465 z m 771 1125 l 563 1125 l 21 0 l 281 0 l 397 247 l 383 268 l 949 268 l 935 247 l 1053 0 l 1311 0 z m 803 1449 b 667 1356 774 1385 736 1356 b 531 1449 597 1356 560 1385 l 375 1450 b 667 1215 419 1296 515 1215 b 958 1449 815 1215 911 1297 z "},"ă":{"ha":1053,"x_min":0,"x_max":0,"o":"m 713 357 l 713 274 b 474 178 713 186 544 178 b 300 269 383 178 300 206 b 424 363 300 314 336 344 b 561 378 467 372 515 376 b 682 381 608 381 644 381 b 735 379 688 381 726 381 z m 944 543 b 535 888 944 783 771 888 b 132 767 386 888 251 851 l 275 622 b 532 696 354 675 444 696 b 708 585 636 696 703 658 l 732 563 b 654 564 724 564 661 564 b 69 272 432 564 69 538 b 465 -15 69 47 293 -15 b 710 49 554 -15 644 6 l 713 49 l 713 -1 l 944 -1 l 944 543 z m 668 1192 b 531 1097 638 1128 601 1097 b 394 1192 461 1097 424 1128 l 239 1192 b 531 957 285 1039 379 957 b 822 1192 681 957 776 1039 z "},"Ĕ":{"ha":1153,"x_min":0,"x_max":0,"o":"m 1056 211 l 339 211 l 361 233 l 361 435 l 339 457 l 989 457 l 989 668 l 339 668 l 361 690 l 361 892 l 339 914 l 1056 914 l 1056 1125 l 125 1125 l 125 0 l 1056 0 z m 739 1450 b 601 1356 710 1386 672 1356 b 465 1450 532 1356 494 1386 l 310 1450 b 601 1215 356 1297 450 1215 b 893 1450 751 1215 847 1297 z "},"ĕ":{"ha":1069,"x_min":0,"x_max":0,"o":"m 299 533 l 319 556 b 538 699 356 644 424 699 b 751 556 649 699 719 647 l 774 533 z m 1000 431 b 538 889 1000 686 849 889 b 69 431 240 889 69 693 b 550 -14 69 182 226 -14 b 918 119 696 -14 814 29 l 778 261 b 550 178 708 204 638 178 b 317 325 431 178 350 236 l 296 347 l 994 347 b 1000 431 999 375 1000 408 z m 676 1192 b 539 1097 646 1128 610 1097 b 403 1192 469 1097 432 1128 l 247 1192 b 539 957 293 1039 388 957 b 831 1192 689 957 785 1039 z "},"Ğ":{"ha":1333,"x_min":0,"x_max":0,"o":"m 1208 668 l 619 668 l 619 458 l 1010 458 l 986 436 b 676 196 971 297 850 196 b 317 553 428 196 317 325 b 685 929 317 792 433 929 b 988 801 804 929 908 893 l 1150 965 b 685 1139 1035 1085 865 1139 b 76 553 301 1139 76 904 b 676 -14 76 208 296 -14 b 1004 106 806 -14 938 35 l 1004 -1 l 1208 -1 z m 814 1450 b 678 1356 785 1386 747 1356 b 542 1450 608 1356 571 1386 l 386 1450 b 678 1215 431 1297 526 1215 b 969 1450 826 1215 922 1297 z "},"ğ":{"ha":1099,"x_min":0,"x_max":0,"o":"m 763 464 b 532 244 763 336 701 244 b 301 464 379 244 301 331 b 532 690 301 594 374 690 b 763 464 689 690 763 597 z m 751 875 l 751 815 l 749 815 b 519 889 701 858 604 889 b 69 467 225 889 69 697 b 521 44 69 218 222 44 b 749 111 610 44 694 71 l 751 111 l 751 86 b 535 -100 751 -29 676 -100 b 274 -17 446 -100 353 -71 l 118 -172 b 535 -299 247 -260 376 -299 b 983 94 831 -299 983 -154 l 983 875 z m 675 1192 b 539 1097 646 1128 608 1097 b 401 1192 469 1097 432 1128 l 247 1192 b 538 957 292 1039 388 957 b 831 1192 688 957 783 1039 z "},"Ĭ":{"ha":500,"x_min":0,"x_max":0,"o":"m 368 1125 l 132 1125 l 132 0 l 368 0 z m 388 1450 b 250 1356 358 1386 321 1356 b 114 1450 181 1356 143 1386 l -42 1450 b 250 1215 4 1297 99 1215 b 542 1450 400 1215 496 1297 z "},"ĭ":{"ha":461,"x_min":0,"x_max":0,"o":"m 347 875 l 115 875 l 115 0 l 347 0 z m 368 1192 b 232 1097 339 1128 301 1097 b 94 1192 163 1097 125 1128 l -60 1192 b 231 957 -15 1039 81 957 b 524 1192 381 957 476 1039 z "},"Ŏ":{"ha":1311,"x_min":0,"x_max":0,"o":"m 994 556 b 656 197 994 346 897 197 b 317 556 417 197 317 346 b 656 928 317 772 417 928 b 994 556 897 928 994 767 z m 1235 556 b 656 1139 1235 890 1038 1139 b 76 556 276 1139 76 890 b 656 -14 76 221 276 -14 b 1235 556 1029 -14 1235 221 z m 790 1450 b 653 1356 761 1386 724 1356 b 517 1450 583 1356 546 1386 l 361 1450 b 653 1215 407 1297 501 1215 b 944 1450 803 1215 899 1297 z "},"ŏ":{"ha":1069,"x_min":0,"x_max":0,"o":"m 768 438 b 535 185 768 288 697 185 b 301 438 374 185 301 288 b 535 689 301 589 371 689 b 768 438 697 689 768 588 z m 1000 438 b 533 889 1000 693 846 889 b 69 438 224 889 69 692 b 535 -14 69 183 224 -14 b 1000 438 843 -14 1000 185 z m 672 1192 b 535 1097 642 1128 606 1097 b 399 1192 465 1097 428 1128 l 243 1192 b 535 957 289 1039 383 957 b 826 1192 685 957 781 1039 z "},"Ŭ":{"ha":1294,"x_min":0,"x_max":0,"o":"m 1176 1125 l 940 1125 l 940 519 b 647 197 940 307 860 197 b 354 519 432 197 354 307 l 354 1125 l 118 1125 l 118 518 b 649 -14 118 179 289 -14 b 1176 518 1007 -14 1176 182 z m 786 1450 b 650 1356 757 1386 719 1356 b 514 1450 581 1356 543 1386 l 358 1450 b 650 1215 403 1297 499 1215 b 942 1450 799 1215 894 1297 z "},"ŭ":{"ha":1083,"x_min":0,"x_max":0,"o":"m 969 875 l 738 875 l 738 364 b 526 186 738 249 653 186 b 340 354 385 186 340 249 l 340 875 l 108 875 l 108 342 b 492 -14 107 126 226 -14 b 735 75 588 -14 678 18 l 738 75 l 738 -1 l 969 -1 z m 664 1192 b 526 1097 633 1128 597 1097 b 390 1192 457 1097 419 1128 l 235 1192 b 526 957 281 1039 375 957 b 818 1192 676 957 772 1039 z "},"Ĩ":{"ha":500,"x_min":0,"x_max":0,"o":"m 368 1125 l 132 1125 l 132 0 l 368 0 z m 488 1481 b 374 1372 464 1392 417 1372 b 321 1386 360 1372 340 1378 b 258 1421 299 1396 281 1408 b 107 1474 217 1446 160 1474 b -104 1301 4 1474 -79 1392 l -12 1208 b 99 1315 15 1297 63 1315 b 156 1301 114 1315 135 1310 b 217 1268 176 1293 196 1281 b 367 1215 260 1242 315 1215 b 581 1386 463 1215 549 1281 z "},"ĩ":{"ha":461,"x_min":0,"x_max":0,"o":"m 347 875 l 115 875 l 115 0 l 347 0 z m 461 1254 b 349 1146 438 1165 392 1146 b 294 1160 333 1146 314 1151 b 233 1194 274 1169 254 1181 b 81 1247 190 1219 133 1247 b -131 1075 -22 1247 -106 1165 l -37 982 b 72 1089 -11 1071 36 1089 b 129 1075 89 1089 110 1083 b 190 1042 150 1067 169 1054 b 340 989 233 1015 289 989 b 556 1160 436 989 522 1054 z "},"Ũ":{"ha":1294,"x_min":0,"x_max":0,"o":"m 1176 1125 l 940 1125 l 940 519 b 647 197 940 307 860 197 b 354 519 432 197 354 307 l 354 1125 l 118 1125 l 118 518 b 649 -14 118 179 289 -14 b 1176 518 1007 -14 1176 182 z m 897 1485 b 785 1376 874 1396 828 1376 b 731 1390 769 1376 750 1382 b 669 1425 710 1400 690 1413 b 517 1478 626 1450 569 1478 b 306 1306 414 1478 332 1396 l 399 1213 b 508 1319 425 1301 472 1319 b 565 1306 525 1319 546 1314 b 626 1272 588 1297 606 1285 b 776 1219 669 1246 725 1219 b 992 1390 872 1219 958 1285 z "},"ũ":{"ha":1083,"x_min":0,"x_max":0,"o":"m 969 875 l 738 875 l 738 364 b 526 188 738 249 653 188 b 340 354 385 188 340 249 l 340 875 l 108 875 l 108 342 b 492 -14 107 126 226 -14 b 735 75 588 -14 678 18 l 738 75 l 738 -1 l 969 -1 z m 775 1254 b 663 1146 751 1165 706 1146 b 608 1160 647 1146 628 1151 b 547 1194 588 1169 568 1181 b 394 1247 504 1219 447 1247 b 183 1075 292 1247 208 1165 l 276 982 b 386 1089 303 1071 350 1089 b 443 1075 403 1089 424 1083 b 504 1042 464 1067 483 1054 b 654 989 547 1015 603 989 b 869 1160 750 989 836 1054 z "},"Ẁ":{"ha":1582,"x_min":0,"x_max":0,"o":"m 1300 1125 l 1115 467 l 1093 350 l 1090 350 l 1067 467 l 881 1125 l 703 1125 l 517 467 l 494 347 l 492 347 l 468 467 l 285 1125 l 35 1125 l 363 0 l 608 0 l 763 547 l 786 672 l 789 672 l 813 547 l 967 0 l 1219 0 l 1547 1125 z m 731 1607 l 597 1474 l 899 1215 l 989 1306 z "},"ẁ":{"ha":1343,"x_min":0,"x_max":0,"o":"m 1082 875 l 961 442 l 936 293 l 933 293 l 906 442 l 768 875 l 575 875 l 439 442 l 411 294 l 408 294 l 383 442 l 263 875 l 18 875 l 288 0 l 525 0 l 642 396 l 671 540 l 674 540 l 700 396 l 817 0 l 1053 0 l 1325 875 z m 599 1357 l 465 1224 l 767 965 l 857 1057 z "},"Ỳ":{"ha":1289,"x_min":0,"x_max":0,"o":"m 974 1125 l 711 771 l 646 660 l 643 660 l 578 771 l 317 1125 l 21 1125 l 526 464 l 526 0 l 764 0 l 764 464 l 1268 1125 z m 558 1607 l 425 1474 l 726 1215 l 817 1306 z "},"ỳ":{"ha":1071,"x_min":0,"x_max":0,"o":"m 797 875 l 590 388 l 551 257 l 549 257 l 504 388 l 275 875 l 19 875 l 435 19 b 304 -100 394 -76 351 -100 b 111 -37 257 -100 201 -85 l 111 -247 b 326 -299 190 -286 253 -299 b 628 -82 464 -299 571 -208 l 1053 875 z m 432 1357 l 299 1224 l 600 965 l 690 1057 z "},"Ẅ":{"ha":1582,"x_min":0,"x_max":0,"o":"m 1300 1125 l 1115 467 l 1093 350 l 1090 350 l 1067 467 l 881 1125 l 703 1125 l 517 467 l 494 347 l 492 347 l 468 467 l 285 1125 l 35 1125 l 363 0 l 608 0 l 763 547 l 786 672 l 789 672 l 813 547 l 967 0 l 1219 0 l 1547 1125 z m 718 1364 b 613 1478 718 1431 682 1478 b 508 1364 544 1478 508 1429 b 614 1250 508 1297 544 1250 b 718 1364 681 1250 718 1297 z m 1069 1364 b 964 1478 1069 1431 1033 1478 b 860 1364 896 1478 860 1429 b 965 1250 860 1297 896 1250 b 1069 1364 1032 1250 1069 1297 z "},"ẅ":{"ha":1343,"x_min":0,"x_max":0,"o":"m 1082 875 l 961 442 l 936 293 l 933 293 l 906 442 l 768 875 l 575 875 l 439 442 l 411 294 l 408 294 l 383 442 l 263 875 l 18 875 l 288 0 l 525 0 l 642 396 l 671 540 l 674 540 l 700 396 l 817 0 l 1053 0 l 1325 875 z m 600 1096 b 496 1210 600 1163 564 1210 b 390 1096 426 1210 390 1163 b 496 982 390 1031 426 982 b 600 1096 563 982 600 1031 z m 951 1096 b 847 1210 951 1163 915 1210 b 742 1096 778 1210 742 1163 b 847 982 742 1031 778 982 b 951 1096 914 982 951 1031 z "},"Ħ":{"ha":1278,"x_min":0,"x_max":0,"o":"m 349 668 l 363 682 l 363 751 l 354 767 l 926 767 l 918 751 l 918 682 l 932 668 z m 1208 951 l 1142 951 l 1154 974 l 1154 1125 l 918 1125 l 918 974 l 929 951 l 350 951 l 363 974 l 363 1125 l 126 1125 l 126 974 l 138 951 l 69 951 l 69 768 l 138 767 l 126 746 l 126 0 l 363 0 l 363 435 l 346 457 l 933 457 l 918 435 l 918 0 l 1154 0 l 1154 746 l 1143 768 l 1208 768 z "},"ħ":{"ha":1101,"x_min":0,"x_max":0,"o":"m 994 536 b 600 888 994 744 858 888 b 357 810 510 888 421 860 l 354 808 l 354 947 l 344 964 l 633 964 l 633 1104 l 344 1104 l 354 1121 l 354 1167 l 122 1167 l 122 1121 l 131 1104 l 56 1104 l 56 964 l 131 964 l 121 947 l 122 0 l 354 0 l 354 501 b 569 686 354 619 443 686 b 763 511 736 686 763 608 l 763 0 l 993 0 l 994 536 z "},"Ŧ":{"ha":1069,"x_min":0,"x_max":0,"o":"m 1042 1125 l 28 1125 l 28 914 l 429 914 l 417 893 l 417 685 l 428 664 l 167 664 l 167 454 l 428 454 l 417 433 l 417 0 l 653 0 l 653 433 l 642 454 l 903 454 l 903 664 l 642 664 l 653 685 l 653 893 l 640 914 l 1042 914 z "},"ŧ":{"ha":757,"x_min":0,"x_max":0,"o":"m 607 254 b 472 186 567 213 533 186 b 390 294 413 186 390 243 l 390 406 l 379 428 l 654 428 l 654 613 l 382 613 l 390 628 l 390 675 l 381 689 l 653 689 l 653 875 l 379 875 l 390 896 l 390 1124 l 158 1000 l 158 896 l 171 875 l 42 875 l 42 689 l 168 689 l 158 675 l 158 628 l 168 613 l 42 613 l 42 428 l 169 428 l 158 406 l 158 294 b 460 -14 158 103 265 -14 b 743 115 582 -14 657 39 z "},"Ŋ":{"ha":1278,"x_min":0,"x_max":0,"o":"m 1153 1125 l 917 1125 l 917 378 l 914 378 l 836 506 l 324 1125 l 125 1125 l 125 0 l 361 0 l 361 751 l 364 751 l 447 619 l 931 31 b 954 -10 938 24 954 -1 l 954 -112 b 907 -164 954 -144 931 -164 b 860 -114 883 -164 860 -146 l 860 -72 l 703 -72 l 703 -125 b 919 -328 701 -249 803 -328 b 1153 -100 1035 -328 1153 -239 z "},"ŋ":{"ha":1094,"x_min":0,"x_max":0,"o":"m 988 543 b 603 889 988 769 825 889 b 350 800 511 889 414 858 l 347 800 l 347 876 l 115 876 l 115 0 l 347 0 l 347 511 b 563 689 347 633 446 689 b 760 521 708 689 760 642 l 760 -58 l 760 -119 b 715 -168 760 -150 739 -168 b 672 -132 692 -168 675 -156 b 669 -69 668 -121 669 -81 l 506 -68 l 506 -118 b 739 -328 506 -250 617 -328 b 985 -128 857 -328 972 -256 b 986 -104 985 -124 986 -110 b 988 543 986 6 988 433 z "},"Ĳ":{"ha":1396,"x_min":0,"x_max":0,"o":"m 368 1125 l 132 1125 l 132 0 l 368 0 z m 1278 1125 l 1042 1125 l 1042 418 b 825 197 1042 246 935 197 b 601 332 749 197 660 247 l 442 172 b 825 -14 542 50 668 -14 b 1278 425 1060 -14 1278 100 z "},"ĳ":{"ha":886,"x_min":0,"x_max":0,"o":"m 347 875 l 115 875 l 115 0 l 347 0 z m 772 875 l 540 875 l 540 -29 b 469 -101 540 -76 513 -101 b 339 -67 428 -101 383 -90 l 339 -264 b 497 -299 388 -283 442 -299 b 772 -36 671 -299 772 -215 z m 357 1061 b 232 1189 357 1133 306 1189 b 107 1061 157 1189 107 1133 b 232 933 107 989 157 933 b 357 1061 306 933 357 989 z m 781 1061 b 656 1189 781 1133 731 1189 b 531 1061 582 1189 531 1133 b 656 933 531 989 581 933 b 781 1061 729 933 781 989 z "},"Ŀ":{"ha":1011,"x_min":0,"x_max":0,"o":"m 990 211 l 340 211 l 361 232 l 361 1125 l 125 1125 l 125 0 l 990 0 z m 707 603 b 590 726 707 675 664 726 b 474 603 518 726 474 674 b 590 481 474 532 518 481 b 707 603 663 481 707 532 z "},"ŀ":{"ha":683,"x_min":0,"x_max":0,"o":"m 347 1167 l 115 1167 l 115 0 l 347 0 z m 683 603 b 567 726 683 675 639 726 b 449 603 493 726 449 674 b 567 481 449 532 493 481 b 683 603 638 481 683 532 z "},"Ḃ":{"ha":1197,"x_min":0,"x_max":0,"o":"m 894 343 b 704 211 894 265 857 211 l 339 211 l 361 233 l 361 457 l 339 479 l 704 479 b 894 343 850 479 894 419 z m 846 797 b 679 676 846 733 815 676 l 339 676 l 361 697 l 361 892 l 339 914 l 679 914 b 846 797 806 914 846 868 z m 1135 340 b 981 585 1135 463 1072 553 b 981 586 981 585 981 586 b 1086 800 1051 633 1086 711 b 693 1125 1086 974 953 1125 l 125 1125 l 125 0 l 704 0 b 1135 340 974 0 1135 128 z m 686 1353 b 569 1475 686 1424 643 1475 b 453 1353 497 1475 453 1424 b 569 1229 453 1281 497 1229 b 686 1353 642 1229 686 1281 z "},"ḃ":{"ha":1099,"x_min":0,"x_max":0,"o":"m 797 436 b 567 189 797 281 732 189 b 335 436 401 189 335 282 b 565 685 335 592 400 685 b 797 436 731 685 797 592 z m 1029 436 b 586 889 1029 696 881 889 b 350 807 500 889 401 856 l 347 807 l 347 1167 l 115 1167 l 115 -1 l 347 -1 l 347 63 l 350 63 b 586 -14 408 10 490 -14 b 1029 436 878 -14 1029 176 z m 703 1106 b 585 1228 703 1176 658 1228 b 468 1106 513 1228 468 1176 b 586 982 468 1035 513 982 b 703 1106 657 982 703 1035 z "},"Ċ":{"ha":1183,"x_min":0,"x_max":0,"o":"m 986 344 b 672 196 913 249 807 196 b 310 556 411 196 310 349 b 674 928 310 769 418 928 b 982 778 808 928 910 876 l 1144 940 b 674 1138 1026 1074 875 1138 b 69 556 285 1138 69 892 b 672 -15 69 219 276 -15 b 1146 186 865 -15 1026 57 z m 776 1353 b 660 1475 776 1424 733 1475 b 543 1353 588 1475 543 1424 b 660 1229 543 1281 588 1229 b 776 1353 732 1229 776 1281 z "},"ċ":{"ha":943,"x_min":0,"x_max":0,"o":"m 754 279 b 539 188 689 215 625 188 b 301 431 371 188 301 290 b 542 688 301 578 383 686 b 749 599 628 688 690 660 l 901 751 b 540 889 815 838 699 889 b 69 432 239 889 69 685 b 538 -14 69 183 221 -14 b 906 128 682 -14 810 38 z m 646 1106 b 529 1228 646 1176 603 1228 b 413 1106 457 1228 413 1176 b 529 982 413 1035 457 982 b 646 1106 601 982 646 1035 z "},"Ḋ":{"ha":1247,"x_min":0,"x_max":0,"o":"m 931 563 b 594 211 931 360 886 211 l 339 211 l 361 233 l 361 892 l 339 914 l 589 914 b 931 563 883 914 931 763 z m 1171 563 b 603 1125 1171 818 1086 1125 l 125 1125 l 125 0 l 608 0 b 1171 563 1089 0 1171 307 z m 693 1353 b 576 1475 693 1424 650 1475 b 460 1353 504 1475 460 1424 b 576 1229 460 1281 504 1229 b 693 1353 649 1229 693 1281 z "},"ḋ":{"ha":1099,"x_min":0,"x_max":0,"o":"m 763 436 b 532 186 763 282 697 186 b 301 436 367 186 301 281 b 532 689 301 592 368 689 b 763 436 699 689 763 592 z m 983 1167 l 751 1167 l 751 807 l 749 807 b 513 889 696 857 599 889 b 69 436 217 889 69 696 b 511 -14 69 176 221 -14 b 749 63 608 -14 690 10 l 751 63 l 751 -1 l 983 -1 z m 629 1106 b 513 1228 629 1176 586 1228 b 396 1106 440 1228 396 1176 b 513 982 396 1035 440 982 b 629 1106 585 982 629 1035 z "},"Ė":{"ha":1153,"x_min":0,"x_max":0,"o":"m 1056 211 l 339 211 l 361 233 l 361 435 l 339 457 l 989 457 l 989 668 l 339 668 l 361 690 l 361 892 l 339 914 l 1056 914 l 1056 1125 l 125 1125 l 125 0 l 1056 0 z m 710 1353 b 592 1475 710 1424 665 1475 b 475 1353 519 1475 475 1424 b 593 1229 475 1281 519 1229 b 710 1353 664 1229 710 1281 z "},"ė":{"ha":1069,"x_min":0,"x_max":0,"o":"m 299 533 l 319 556 b 538 699 356 644 424 699 b 751 556 649 699 719 647 l 774 533 z m 1000 431 b 538 889 1000 686 849 889 b 69 431 240 889 69 693 b 550 -14 69 182 226 -14 b 918 119 696 -14 814 29 l 778 261 b 550 178 708 204 638 178 b 317 325 431 178 350 236 l 296 347 l 994 347 b 1000 431 999 375 1000 408 z m 651 1106 b 535 1228 651 1176 608 1228 b 418 1106 463 1228 418 1176 b 535 982 418 1035 463 982 b 651 1106 607 982 651 1035 z "},"Ḟ":{"ha":1069,"x_min":0,"x_max":0,"o":"m 1028 1125 l 125 1125 l 125 0 l 361 0 l 361 410 l 339 432 l 960 432 l 960 642 l 339 643 l 361 665 l 361 893 l 339 914 l 1028 914 z m 703 1353 b 586 1475 703 1424 660 1475 b 469 1353 514 1475 469 1424 b 586 1229 469 1281 514 1229 b 703 1353 658 1229 703 1281 z "},"ḟ":{"ha":678,"x_min":0,"x_max":0,"o":"m 653 874 l 383 874 l 397 896 b 521 989 397 954 433 989 b 653 965 567 989 611 981 l 653 1151 b 488 1175 611 1167 557 1175 b 164 896 294 1175 164 1068 l 175 874 l 39 874 l 39 689 l 175 689 l 164 668 l 164 0 l 396 0 l 396 667 l 385 689 l 653 689 z m 551 1368 b 435 1490 551 1439 508 1490 b 318 1368 363 1490 318 1439 b 435 1244 318 1296 363 1244 b 551 1368 507 1244 551 1296 z "},"Ġ":{"ha":1333,"x_min":0,"x_max":0,"o":"m 1208 668 l 619 668 l 619 458 l 1010 458 l 986 436 b 676 196 971 297 850 196 b 317 553 428 196 317 325 b 685 929 317 792 433 929 b 988 801 804 929 908 893 l 1150 965 b 685 1139 1035 1085 865 1139 b 76 553 301 1139 76 904 b 676 -14 76 208 296 -14 b 1004 106 806 -14 938 35 l 1004 -1 l 1208 -1 z m 788 1353 b 669 1475 788 1424 743 1475 b 553 1353 597 1475 553 1424 b 671 1229 553 1281 597 1229 b 788 1353 742 1229 788 1281 z "},"ġ":{"ha":1099,"x_min":0,"x_max":0,"o":"m 763 464 b 532 244 763 336 701 244 b 301 464 379 244 301 331 b 532 690 301 594 374 690 b 763 464 689 690 763 597 z m 751 875 l 751 815 l 749 815 b 519 889 701 858 604 889 b 69 467 225 889 69 697 b 521 44 69 218 222 44 b 749 111 610 44 694 71 l 751 111 l 751 86 b 535 -100 751 -29 676 -100 b 274 -17 446 -100 353 -71 l 118 -172 b 535 -299 247 -260 376 -299 b 983 94 831 -299 983 -154 l 983 875 z m 651 1106 b 535 1228 651 1176 608 1228 b 418 1106 463 1228 418 1176 b 535 982 418 1035 463 982 b 651 1106 607 982 651 1035 z "},"İ":{"ha":500,"x_min":0,"x_max":0,"o":"m 368 1125 l 132 1125 l 132 0 l 368 0 z m 367 1353 b 250 1475 367 1424 324 1475 b 133 1353 178 1475 133 1424 b 250 1229 133 1281 178 1229 b 367 1353 322 1229 367 1281 z "},"Ṁ":{"ha":1458,"x_min":0,"x_max":0,"o":"m 1333 1125 l 1139 1125 l 778 501 l 731 383 l 728 383 l 679 501 l 319 1125 l 125 1125 l 125 -1 l 361 -1 l 361 644 l 364 644 l 414 526 l 726 -15 l 732 -15 l 1044 526 l 1094 646 l 1097 646 l 1097 -1 l 1333 -1 z m 846 1353 b 728 1475 846 1424 801 1475 b 611 1353 656 1475 611 1424 b 729 1229 611 1281 656 1229 b 846 1353 800 1229 846 1281 z "},"ṁ":{"ha":1479,"x_min":0,"x_max":0,"o":"m 1371 511 b 1033 889 1371 746 1263 889 b 782 765 932 889 838 836 l 779 765 b 551 889 738 836 653 889 b 350 814 479 889 400 860 l 347 814 l 347 876 l 115 876 l 115 0 l 347 0 l 347 517 b 499 689 347 621 411 689 b 626 513 600 689 626 638 l 626 0 l 860 0 l 858 518 b 1010 689 858 617 913 689 b 1138 482 1115 689 1138 631 l 1138 0 l 1371 0 l 1371 511 z m 863 1106 b 744 1228 863 1176 818 1228 b 628 1106 672 1228 628 1176 b 746 982 628 1035 672 982 b 863 1106 817 982 863 1035 z "},"Ṗ":{"ha":1176,"x_min":0,"x_max":0,"o":"m 874 760 b 690 604 874 669 822 604 l 339 604 l 361 626 l 361 893 l 339 914 l 690 914 b 874 760 822 914 874 854 z m 1114 760 b 690 1125 1114 974 957 1125 l 125 1125 l 125 0 l 361 0 l 361 372 l 339 393 l 690 393 b 1114 760 957 393 1114 554 z m 693 1353 b 576 1475 693 1424 650 1475 b 460 1353 504 1475 460 1424 b 576 1229 460 1281 504 1229 b 693 1353 649 1229 693 1281 z "},"ṗ":{"ha":1099,"x_min":0,"x_max":0,"o":"m 797 436 b 565 186 797 281 731 186 b 335 436 400 186 335 279 b 567 689 335 590 401 689 b 797 436 732 689 797 590 z m 1029 439 b 593 889 1029 697 879 889 b 350 811 490 889 406 861 l 347 811 l 347 875 l 115 875 l 115 -293 l 347 -293 l 347 67 l 350 67 b 586 -14 403 18 500 -14 b 1029 439 881 -14 1029 178 z m 697 1106 b 581 1228 697 1176 654 1228 b 464 1106 508 1228 464 1176 b 581 982 464 1035 508 982 b 697 1106 653 982 697 1035 z "},"Ṡ":{"ha":1174,"x_min":0,"x_max":0,"o":"m 1104 321 b 753 650 1104 471 988 593 b 571 696 726 656 596 689 b 338 818 389 742 338 771 b 588 929 338 871 404 929 b 915 782 718 929 838 871 l 1081 946 b 590 1139 958 1071 792 1139 b 97 813 268 1139 97 992 b 476 496 97 622 276 547 b 685 444 503 489 660 450 b 864 317 832 408 864 353 b 613 196 864 254 797 196 b 233 349 482 196 349 244 l 69 185 b 604 -14 211 49 404 -14 b 1104 321 951 -14 1104 147 z m 704 1353 b 586 1475 704 1424 660 1475 b 469 1353 514 1475 469 1424 b 588 1229 469 1281 514 1229 b 704 1353 658 1229 704 1281 z "},"ṡ":{"ha":974,"x_min":0,"x_max":0,"o":"m 904 261 b 624 514 904 393 808 468 b 483 551 604 519 501 547 b 329 628 376 578 329 592 b 490 697 329 653 360 697 b 738 599 585 697 675 660 l 882 742 b 489 888 782 839 653 888 b 96 625 240 888 96 776 b 400 367 96 465 250 404 b 557 326 419 363 538 331 b 671 251 658 301 671 279 b 499 178 671 219 632 178 b 218 300 399 178 292 222 l 69 150 b 503 -15 199 39 343 -15 b 904 261 774 -15 904 113 z m 603 1106 b 486 1228 603 1176 560 1228 b 369 1106 414 1228 369 1176 b 486 982 369 1035 414 982 b 603 1106 558 982 603 1035 z "},"Ṫ":{"ha":1069,"x_min":0,"x_max":0,"o":"m 1042 1125 l 28 1125 l 28 914 l 429 914 l 417 892 l 417 0 l 653 0 l 653 892 l 640 914 l 1042 914 z m 657 1353 b 540 1475 657 1424 614 1475 b 424 1353 468 1475 424 1424 b 540 1229 424 1281 468 1229 b 657 1353 613 1229 657 1281 z "},"ṫ":{"ha":753,"x_min":0,"x_max":0,"o":"m 604 254 b 475 185 560 206 522 185 b 388 294 424 185 388 222 l 388 668 l 375 689 l 646 689 l 646 875 l 375 875 l 388 896 l 388 1124 l 156 1000 l 156 896 l 167 875 l 39 875 l 39 689 l 167 689 l 156 668 l 156 294 b 454 -14 156 90 253 -14 b 740 118 564 -14 650 29 z m 389 1278 b 271 1401 389 1349 344 1401 b 154 1278 199 1401 154 1349 b 272 1156 154 1207 199 1156 b 389 1278 343 1156 389 1207 z "},"Ż":{"ha":1194,"x_min":0,"x_max":0,"o":"m 1111 211 l 417 211 l 417 214 l 518 307 l 1104 960 l 1104 1125 l 97 1125 l 97 914 l 779 914 l 779 911 l 669 817 l 83 167 l 83 0 l 1111 0 z m 707 1353 b 589 1475 707 1424 663 1475 b 472 1353 517 1475 472 1424 b 590 1229 472 1281 517 1229 b 707 1353 661 1229 707 1281 z "},"ż":{"ha":989,"x_min":0,"x_max":0,"o":"m 913 201 l 388 201 l 388 204 l 494 289 l 908 724 l 908 874 l 86 874 l 86 672 l 589 672 l 589 669 l 486 592 l 76 156 l 76 0 l 913 0 z m 615 1106 b 499 1228 615 1176 572 1228 b 382 1106 426 1228 382 1176 b 499 982 382 1035 426 982 b 615 1106 571 982 615 1035 z "},"ſ":{"ha":656,"x_min":0,"x_max":0,"o":"m 656 1151 b 492 1175 614 1167 561 1175 b 168 896 297 1175 168 1068 l 178 874 l 42 874 l 42 683 l 178 683 l 167 663 l 167 0 l 399 0 l 399 882 b 524 989 399 953 436 989 b 656 965 571 989 615 981 z "},"­":{"ha":590,"x_min":0,"x_max":0,"o":"m 549 565 l 42 565 l 42 367 l 549 367 z "}}}
